<?xml version="1.0" ?><!DOCTYPE svg  PUBLIC '-//W3C//DTD SVG 1.1//EN'  'http://www.w3.org/Graphics/SVG/1.1/DTD/svg11.dtd'><svg height="512px" style="enable-background:new 0 0 512 512;" version="1.1" viewBox="0 0 512 512" width="512px" xml:space="preserve" xmlns="http://www.w3.org/2000/svg" xmlns:xlink="http://www.w3.org/1999/xlink"><g id="_x37_9"><g><g><path d="M392.575,482.796c-0.31,0-0.606-0.061-0.982-0.158c-0.922-0.23-1.716-0.83-2.201-1.649     c-0.395-0.686-0.606-1.061-0.746-5.821c-1.376,0.897-2.819,1.897-3.862,2.613c-5.034,3.476-6.089,4.19-7.976,3.767     c-0.958-0.213-1.825-0.855-2.322-1.705c-0.503-0.879-0.733-1.285-0.2-3.056c-0.049,0.042-0.097,0.079-0.151,0.115     c-5.943,4.506-8.466,6.325-11.037,5.797c-1.116-0.229-2.074-0.909-2.638-1.886c-0.17-0.297-0.292-0.612-0.37-0.928     c-0.413,0.055-0.789,0-1.273-0.115c-0.952-0.212-1.796-0.837-2.286-1.68c-0.838-1.462-0.528-3.317,0.739-4.427l1.14-0.995     c-0.163-0.182-0.303-0.37-0.424-0.588c-0.94-1.632-0.564-2.953,1.024-8.502c0.067-0.243,0.146-0.498,0.219-0.765     c-3.76,2.074-10.485,6.174-22.438,14.282c-1.461,0.982-2.262,1.527-3.748,1.206c-0.976-0.206-1.813-0.824-2.304-1.686     c-0.94-1.625-0.91-2.887,0.582-4.73c-2.184,0.843-3.82,1.141-4.918,0.91c-1.25-0.261-2.269-0.989-2.887-2.05     c-0.206-0.364-0.346-0.74-0.413-1.128l-6.968,4.026c-1.691,0.977-3.845,0.4-4.833-1.292c-1.268-2.201-0.249-4.245,2.189-6.713     c-0.109-0.019-0.213-0.042-0.298-0.066c-1.036-0.243-1.897-0.88-2.419-1.783c-1.311-2.269-1.28-4.512,3.838-9.431     c-0.363-0.278-0.673-0.637-0.909-1.049c-0.728-1.255-0.794-2.22-0.2-3.238c-0.527-0.31-0.971-0.752-1.285-1.292     c-0.935-1.631-0.831-2.602,0.691-4.433l-10.716,6.191c-0.819,0.474-1.777,0.595-2.687,0.352c-0.91-0.242-1.674-0.836-2.147-1.643     c-1.406-2.438-0.837-5.04,5.731-11.383c-0.844-0.262-1.571-0.831-2.014-1.602c-0.249-0.437-0.431-0.837-0.521-1.237l-2.553,1.479     c-0.813,0.468-1.777,0.589-2.681,0.353c-0.903-0.243-1.674-0.837-2.147-1.649c-0.697-1.213-0.843-2.335-0.297-3.597     c-1.491,1.049-2.978,2.093-4.421,3.129c-0.818,0.583-1.831,0.789-2.808,0.583c-0.971-0.219-1.807-0.825-2.305-1.687     c-0.709-1.225-1.419-2.456,0.995-5.621l-7.659,4.427c-0.807,0.473-1.777,0.594-2.675,0.346c-0.909-0.236-1.674-0.831-2.146-1.644     c-1.177-2.031-1.044-4.19,2.237-7.811c-5.719-1.262-8.993-2.208-10.928-2.984l-2.174,1.249c-1.687,0.977-3.852,0.395-4.828-1.291     c-0.973-1.692-0.394-3.852,1.297-4.827l3.879-2.238c0.813-0.473,1.771-0.601,2.681-0.357c0.539,0.151,1.024,0.412,1.431,0.771     c1.268,0.576,5.53,1.716,9.473,2.625c3.172-2.268,11.686-8.302,20.619-14.16c23.839-15.621,27.472-14.852,29.424-14.427     c1.328,0.285,2.414,1.056,3.051,2.171c1.746,2.93-0.922,4.603-2.856,5.828c-3.754,2.353-7.198,4.542-10.376,6.592l5.027-2.898     c1.631-0.946,3.717-0.443,4.736,1.146c0.6,0.935,0.709,2.068,0.369,3.051c3.578-1.456,4.791-1.194,5.707-0.995     c1.255,0.273,2.286,1.014,2.898,2.068c1.819,3.153-0.188,5.543-8.181,11.164c0.091,0.115,0.182,0.219,0.267,0.346     c0.067,0.092,0.128,0.188,0.183,0.285c5.536-2.862,6.955-2.547,7.78-2.365c1.128,0.249,2.062,0.922,2.62,1.893     c0.576,0.994,1.188,2.983-1.468,4.997c-5.003,3.809-9.267,7.149-12.881,10.055l5.883-3.39c0.818-0.479,1.776-0.601,2.687-0.358     c0.897,0.243,1.674,0.831,2.146,1.649c0.703,1.237,0.794,2.396-0.024,4.045l10.752-6.216c1.619-0.928,3.688-0.437,4.712,1.122     c0.164,0.242,0.285,0.485,0.376,0.746c1.08-0.328,1.868-0.321,2.639-0.146c1.067,0.248,1.958,0.903,2.498,1.837     c1.649,2.856-0.988,4.7-2.262,5.592c-0.813,0.57-1.989,1.377-3.427,2.371c-3.202,2.189-6.161,4.245-8.859,6.149     c5.621-3.481,11.619-7.29,17.355-11.013c1.613-1.05,3.778-0.613,4.852,0.994c1.08,1.602,0.674,3.766-0.915,4.87     c-1.978,1.364-3.96,2.759-5.949,4.16l9.394-5.422c1.686-0.977,3.851-0.4,4.827,1.292c1.692,2.929-0.631,5.228-4.615,8.302     c0.977,1.819,0.667,3.639-1.158,6.064c0.825-0.127,1.31-0.019,1.765,0.091c1.098,0.255,2.008,0.916,2.553,1.862     c0.801,1.382,0.71,2.692-0.314,6.494c8.005-5.148,9.63-4.803,10.697-4.572s1.982,0.897,2.522,1.825     c0.406,0.697,0.546,1.48,0.442,2.232c0.776,0.327,1.42,0.885,1.838,1.619c0.467,0.794,0.649,1.54,0.546,2.328     c0.618,0.352,1.14,0.861,1.504,1.486c0.388,0.673,0.54,1.455,0.437,2.226c4.366-2.875,6.113-3.56,7.908-3.16     c1.037,0.237,1.946,0.892,2.468,1.808c0.298,0.521,0.468,1.115,0.474,1.716c0.018,1.158,0.042,2.401,0.072,3.578     c4.834-2.972,5.361-3.202,6.926-2.808c0.928,0.236,1.734,0.843,2.207,1.668c0.977,1.686,0.4,3.845-1.279,4.82     c-0.267,0.152-0.533,0.268-0.813,0.346c-0.831,0.449-3.051,1.808-4.427,2.656C394.607,482.152,393.57,482.796,392.575,482.796z      M398.694,475.628c0.34,0.576,0.794,1,1.286,1.273C399.465,476.604,399.021,476.174,398.694,475.628z" style="fill:#D9524C;"/></g><g><path d="M376.432,266.109c-0.461,0-0.788-0.078-1.104-0.151c-1.085-0.267-1.971-0.916-2.511-1.85     c-1.746-3.032,0.886-5.015,4.524-7.769c0.752-0.567,1.613-1.21,2.596-1.922l-11.589,6.689c-1.681,0.977-3.845,0.4-4.821-1.292     c-0.977-1.688-0.4-3.848,1.291-4.827l99.923-57.688c1.655-0.955,3.767-0.421,4.779,1.207c0.994,1.625,0.527,3.757-1.073,4.806     c-7.254,4.758-15.501,10.207-23.997,15.843c1.152-0.042,2.311,0.503,3.014,1.525c1.092,1.574,0.728,3.724-0.818,4.854     l-6.865,5.033c0.188,0.209,0.358,0.44,0.504,0.694c0.982,1.689,0.399,3.851-1.292,4.827c-0.873,0.507-1.88,0.595-2.783,0.322     c-3.797,1.271-16.302,9.712-21.808,13.426c-8.145,5.503-8.145,5.503-9.915,5.1c-0.953-0.218-1.783-0.833-2.274-1.677     C383.388,264.448,378.549,266.109,376.432,266.109z" style="fill:#D9524C;"/></g><g><path d="M385.856,213.586c-1.226,0-2.408-0.633-3.063-1.768c-0.977-1.689-0.4-3.848,1.291-4.824     l88.407-51.041c1.686-0.974,3.844-0.397,4.82,1.292c0.982,1.692,0.4,3.851-1.291,4.824l-88.406,51.041     C387.063,213.435,386.456,213.586,385.856,213.586z" style="fill:#D9524C;"/></g><g><path d="M384.109,201.151c-0.309,0-0.618-0.042-0.916-0.118c-0.909-0.246-1.68-0.837-2.146-1.65     c-0.431-0.749-0.631-1.61-0.57-2.499c-1.013,0.328-1.449,0.215-2.013,0.07c-0.922-0.24-1.741-0.855-2.214-1.677     c-0.977-1.689-0.395-3.851,1.292-4.827c0.4-0.23,0.824-0.373,1.243-0.434c3.554-1.58,23.244-13.466,40.668-23.994     c57.599-34.788,60.94-36.15,63.633-35.449c0.922,0.233,1.789,0.892,2.269,1.71c0.473,0.819,0.601,1.795,0.346,2.708     c-0.255,0.916-0.861,1.688-1.687,2.146c-2.692,1.495-5.391,3.011-8.09,4.527c0.897,0.224,1.717,0.8,2.214,1.667     c0.97,1.686,0.394,3.848-1.298,4.824l-90.972,52.521C385.328,200.99,384.722,201.151,384.109,201.151z" style="fill:#D9524C;"/></g><g><path d="M283.423,413.328c-0.321,0-0.631-0.049-0.952-0.115c-1.019-0.23-1.916-0.885-2.432-1.789     c-2.189-3.777,2.244-6.646,8.369-10.625c1.024-0.654,2.116-1.352,3.269-2.073c-0.861-1.632-0.667-2.936,6.271-8.806     c-1.292,0.261-2.693-0.242-3.529-1.389c-1.122-1.534-0.825-3.688,0.673-4.863l4.221-3.293c-0.958,0.272-1.353,0.182-1.771,0.066     c-0.928-0.23-1.747-0.855-2.22-1.674c-0.061-0.091-0.104-0.194-0.158-0.285c-0.588,0.043-1.109,0-1.595-0.109     c-1.17-0.267-2.135-0.977-2.723-1.982c-0.958-1.662-0.412-3.791,1.23-4.785c0.783-0.479,1.577-0.958,2.372-1.455     c-0.904-0.219-1.711-0.789-2.208-1.662c-1.776-3.063,0.013-5.604,6.149-9.758c-1.546-2.995,1.037-5.481,6.253-9.575     c-0.188-0.212-0.358-0.442-0.504-0.697c-0.601-1.043-1.407-2.438,0.558-5.592c-4.208,1.868-5.27,1.626-5.949,1.462     c-1.079-0.255-1.965-0.897-2.504-1.832c-0.892-1.552-0.479-3.529,0.958-4.597l9.605-7.168c-0.715-0.382-1.304-0.952-1.716-1.667     c-1.776-3.087,1.043-5.798,4.646-8.854c-0.213-0.212-0.395-0.455-0.546-0.722c-0.425-0.728-0.91-1.559-0.589-2.893     c-0.648,0.03-1.091-0.061-1.491-0.151c-1.213-0.273-2.214-0.982-2.813-2.014c-0.929-1.619-0.443-3.669,1.104-4.712     c1.637-1.092,3.287-2.201,4.948-3.329c-0.127-0.152-0.255-0.321-0.352-0.498c-1.729-2.989-0.376-5.937,6.191-11.491     c-0.624-0.298-1.164-0.776-1.534-1.42c-0.588-1.024-1.152-2.698-0.497-4.905c0.431-1.419,1.4-2.947,2.893-4.585     c-0.419-0.825-0.51-1.57-0.346-2.268c-0.54-0.455-0.995-1.007-1.358-1.638c-0.946-1.638-0.437-3.729,1.158-4.749l3.427-2.183     c-0.576-0.013-0.971-0.109-1.316-0.194c-1.237-0.291-2.25-1.031-2.851-2.068c-0.928-1.612-1.037-3.207,0.722-5.603     c-0.86,0.054-1.631,0.006-2.292-0.14c-2.044-0.479-3.111-1.687-3.65-2.62c-1.947-3.365,1.146-5.34,6.762-8.921     c0.285-0.179,0.563-0.363,0.867-0.552c-0.219-0.009-0.437-0.036-0.649-0.082c-0.964-0.215-1.807-0.822-2.298-1.683     c-0.758-1.316-0.631-2.465-0.066-3.469c-5.556,3.402-5.956,3.305-7.023,3.041c-0.939-0.227-1.746-0.833-2.231-1.67     c-0.922-1.598-0.988-3.141,0.128-4.979c-0.285-0.03-0.528-0.085-0.752-0.136c-1.104-0.264-2.02-0.937-2.572-1.889     c-0.078-0.127-0.145-0.267-0.224-0.416c-11.39,5.952-12.56,5.655-13.657,5.367c-0.922-0.233-1.819-0.904-2.292-1.725     c-0.485-0.837-0.601-1.838-0.321-2.769c0.267-0.928,0.909-1.701,1.771-2.141c1.261-0.646,2.534-1.301,3.802-1.956     c-0.346-0.279-0.648-0.625-0.867-1.021c-0.369-0.628-0.558-1.332-0.563-2.053l-0.928,0.537c-1.68,0.968-3.814,0.413-4.804-1.246     c-0.667-1.106-0.648-2.438-0.072-3.502c-0.788-0.264-1.485-0.807-1.935-1.583c-0.533-0.934-0.601-2.017-0.267-2.956     c-0.049-0.012-0.091-0.024-0.14-0.037c-1.092-0.261-1.989-0.925-2.535-1.868c-0.631-1.086-0.776-2.393-0.431-3.681     c0.121-0.446,0.322-0.916,0.613-1.413c-1.092,0.203-1.972,0.209-2.65,0.042c-1.201-0.294-2.178-1.013-2.771-2.032     c-0.94-1.625-0.437-3.702,1.14-4.73l13.657-8.875l-0.801,0.467c-0.813,0.464-1.776,0.591-2.687,0.349     c-0.897-0.243-1.674-0.834-2.141-1.646c-0.563-0.979-0.703-2.156-0.388-3.308c0.424-1.531,1.073-3.878,15.452-13.724     c-0.122-0.704-0.122-1.535,0.14-2.486c0.951-3.505,6.046-8.069,14.433-13.775c-0.376-1.301,0.024-2.52,1.201-3.887     c-0.595-0.3-1.11-0.771-1.468-1.392c-0.182-0.307-0.315-0.631-0.412-0.968l-0.559,0.328c-1.631,0.937-3.705,0.44-4.73-1.134     c-1.024-1.577-0.637-3.675,0.886-4.785c4.275-3.114,9.206-6.72,14.258-10.44c-0.691-0.318-1.316-0.867-1.692-1.507     c-1.4-2.44,0.321-4.096,1.844-5.558c0.807-0.779,1.965-1.874,3.359-3.181c0.716-0.673,1.504-1.407,2.335-2.181     c-0.261-0.012-0.516-0.045-0.764-0.1c-1.116-0.243-2.038-0.907-2.596-1.88c-0.516-0.889-0.667-1.704-0.474-2.568     c-1.861,0.994-2.262,0.895-3.262,0.64c-0.922-0.233-1.729-0.84-2.208-1.668c-0.837-1.452-0.994-2.692,1.341-6.292     c-0.953-1.683-0.377-3.824,1.297-4.797c0.164-0.097,0.334-0.179,0.504-0.243c0.327-0.194,0.873-0.534,1.443-0.889     c2.802-1.752,3.645-2.283,5.239-1.883c0.928,0.23,1.734,0.834,2.214,1.665c0.188,0.318,0.315,0.661,0.394,1.016     c4.846-2.923,5.464-3.063,6.92-2.699c0.934,0.236,1.74,0.849,2.214,1.674c0.442,0.764,0.605,1.516,0.533,2.295     c7.75-5.476,10.267-6.838,12.705-6.304c1.115,0.24,2.043,0.91,2.607,1.886c0.818,1.431,0.546,3.244-0.673,4.363     c-1.553,1.431-3.245,2.996-5.021,4.63c6.847-4.178,8.235-4.46,9.897-4.057c1.006,0.242,1.85,0.867,2.364,1.759     c1.522,2.629-0.546,4.493-2.534,6.128l14.621-8.438c1.686-0.974,3.845-0.397,4.821,1.294c0.661,1.14,0.818,2.499,0.431,3.835     c-0.037,0.146-0.086,0.292-0.146,0.44c0.164,0.182,0.31,0.379,0.431,0.594c0.091,0.158,0.177,0.315,0.249,0.473     c1.547-0.264,2.377-0.085,3.02,0.051c1.462,0.313,2.645,1.146,3.348,2.359c0.109,0.188,0.2,0.382,0.273,0.588     c13.244-6.883,15.688-6.313,17.289-5.946c1.286,0.3,2.323,1.055,2.947,2.123c0.467,0.818,0.595,1.792,0.346,2.705     c-0.254,0.91-0.854,1.683-1.686,2.144c-0.285,0.164-0.576,0.324-0.861,0.485c0.57,0.288,1.067,0.731,1.432,1.316     c0.746,1.219,0.66,2.723-0.098,3.836c5.804-3.135,8.193-3.766,9.752-3.387c1.043,0.258,1.91,0.901,2.443,1.81     c0.583,1.016,0.722,2.229,0.4,3.417c-1.376,5.094-14.536,13.527-54.743,36.514c0.364,0.279,0.674,0.625,0.904,1.031     c0.376,0.655,0.563,1.398,0.552,2.168l6.088-3.52c1.687-0.97,3.846-0.394,4.821,1.294c1.704,2.944-0.813,4.964-3.917,7.223     c0.248,0.24,0.485,0.516,0.667,0.834c0.291,0.521,0.485,1.083,0.57,1.671c7.744-4.542,8.296-4.406,9.624-4.066     c0.388,0.097,0.758,0.264,1.085,0.479c12.79-6.786,26.502-13.897,40.747-21.235c8.266-4.257,16.641-8.572,23.954-12.411     c8.023-4.815,15.792-9.491,23.142-13.933c0.813-0.488,1.789-0.631,2.705-0.395c0.922,0.237,1.71,0.834,2.177,1.656     c0.521,0.9,0.648,1.962,0.346,2.98c-0.728,2.493-4.154,4.949-25.04,15.916c-17.35,10.403-42.172,25.243-67.023,39.919     c-4.378,2.592-8.563,5.058-12.553,7.404c0.012,0.021,0.03,0.045,0.042,0.067c0.194,0.336,0.346,0.661,0.455,0.995     c68.576-42.869,98.206-58.782,105.271-57.047c1.285,0.315,2.341,1.079,2.965,2.156c1.777,3.081-0.345,4.43-5.476,7.689     c-2.692,1.716-6.646,4.169-12.068,7.508c-10.164,6.246-24.439,14.927-39.546,24.115c-11.771,7.156-25.324,15.397-38.672,23.557     c1.267,2.262,1.007,4.551-2.96,8.423c4.543-2.829,9.146-5.664,13.718-8.475c2.492-1.674,4.973-3.348,7.459-5.021     c48.782-32.848,63.834-42.211,69.485-40.898c1.244,0.292,2.269,1.037,2.881,2.099c1.753,3.035-0.782,4.551-3.711,6.304     c-1.626,0.967-3.984,2.368-6.962,4.139c-26.508,15.743-48.236,28.86-66.023,39.785c-25.876,17.377-46.416,30.889-61.25,39.224     c-3.596,2.492-6.464,4.569-8.757,6.298c16.52-8.05,49.346-27.581,85.144-50.013l47.224-30.158     c1.644-1.046,3.826-0.573,4.876,1.064c0.892,1.386,0.697,3.163-0.382,4.315c1.691,0.416,3.02,1.389,3.851,2.826     c1.789,3.09-0.686,5.595-5.683,9.146c0.455,0.988,0.776,2.422,0.242,4.221c-2.662,8.93-29.333,22.771-72.62,44.615     c-13.614,6.871-27.587,13.924-39.564,20.395c0.74,0.291,1.364,0.831,1.771,1.522c1.887,3.28-1.395,5.785-4.857,8.447     c-1.061,0.807-2.304,1.723-3.65,2.699c0.51-0.061,0.916,0,1.358,0.108c0.934,0.23,1.85,0.904,2.335,1.734     c0.206,0.37,0.363,0.716,0.461,1.056c1.406-0.37,2.959,0.176,3.814,1.455c1.067,1.596,0.673,3.748-0.897,4.857     c-0.073,0.037-4.506,3.172-10.528,7.223c0.729,0.243,1.383,0.74,1.832,1.443c0.406,0.631,0.576,1.347,0.552,2.038     c1.485-0.601,2.565-0.716,3.578-0.497c1.146,0.242,2.092,0.928,2.656,1.922c0.903,1.553,0.491,3.529-0.946,4.597l-4.718,3.523     c1.098,0.03,2.177,0.576,2.838,1.571c1.085,1.613,0.661,3.796-0.946,4.882c-10.691,7.259-22.269,15.804-29.728,22.08     c1.073-0.637,2.195-1.334,3.366-2.062c11.243-7.884,22.723-15.525,22.838-15.604c1.602-1.062,3.754-0.661,4.852,0.915     c1.098,1.564,0.746,3.735-0.807,4.87c-3.135,2.305-6.452,4.688-9.781,7.017c0.454,0.303,0.836,0.703,1.115,1.176     c0.855,1.492,0.892,2.917,0,4.47c0.328,0.273,0.606,0.601,0.831,0.977c0.752,1.31,1.68,2.917-2.001,7.004     c0.267,0.249,0.509,0.534,0.685,0.85c0.158,0.278,0.285,0.576,0.358,0.885c1.358-0.278,2.789,0.261,3.608,1.449     c1.061,1.541,0.739,3.639-0.728,4.791l-3.542,2.766c0.431-0.012,0.703,0.055,0.909,0.098c1.129,0.254,2.068,0.939,2.633,1.91     c0.885,1.534,0.49,3.499-0.916,4.572c-2.596,1.977-5.464,4.172-8.448,6.458l1.05-0.594c0.807-0.474,1.776-0.595,2.674-0.358     c0.91,0.249,1.68,0.837,2.147,1.65c2.073,3.602-1.662,6.586-8.199,10.909c0.503,1.553-0.128,3.299-1.602,4.148     c-1.03,0.588-2.226,0.606-3.231,0.151c-4.045,1.177-17.375,10.364-24.707,15.428C288.766,411.357,285.63,413.328,283.423,413.328     z M340.737,238.017c-3.814,2.52-7.702,5.13-11.571,7.771c0.91-0.555,1.85-1.119,2.802-1.701     c10.109-6.143,27.647-16.798,38.569-24.54c-0.108,0.058-0.218,0.119-0.314,0.176     C359.246,226.467,349.009,232.801,340.737,238.017z M451.509,199.574c-2.668,1.535-5.834,3.463-9.575,5.88     c-0.425,0.279-0.855,0.555-1.292,0.84C444.632,203.871,448.301,201.606,451.509,199.574z M323.363,117.654     c-0.322,0-0.649,0.045-0.94,0.133c0.552-0.151,1.122-0.167,1.668-0.051c0-0.006,0-0.006,0-0.006     C323.854,117.681,323.6,117.654,323.363,117.654z" style="fill:#D9524C;"/></g><g><path d="M398.464,181.245c-0.304,0-0.612-0.042-0.909-0.118c-0.904-0.246-1.681-0.837-2.147-1.65     c-0.601-1.043-0.746-2.289-0.412-3.502c0.085-0.315,0.212-0.637,0.382-0.961c-1.516,0.531-3.25-0.027-4.147-1.44     c-1.044-1.64-0.559-3.817,1.079-4.866c0.019-0.016,0.346-0.228,0.934-0.604c-0.661-0.346-1.194-0.867-1.576-1.519     c-0.789-1.368-0.576-3.096,0.527-4.23c1.559-1.604,3.172-3.281,4.761-4.949c-6.223,4.436-8.472,5.555-10.698,5.082     c-1.109-0.233-2.067-0.925-2.632-1.895c-0.976-1.689-0.394-3.848,1.292-4.824c0.728-0.421,1.553-0.552,2.322-0.428     c1.929-0.961,6.508-4.314,9.637-6.61c10.043-7.356,13.833-9.867,16.986-9.206c1.201,0.254,2.184,0.961,2.796,2.004     c1.024,1.792,1.667,2.887-5.858,11.383c5.445-3.433,11.559-7.48,17.15-11.34c0.813-0.561,1.819-0.761,2.783-0.542     c0.964,0.215,1.789,0.828,2.286,1.68c0.079,0.13,0.146,0.267,0.219,0.397c39.569-24.106,42.371-23.417,44.439-22.914     c1.079,0.261,1.971,0.918,2.511,1.853c0.497,0.871,0.988,2.295,0.467,4.169c-0.54,1.953-2.226,4.09-5.137,6.583     c0.073,0.1,0.146,0.203,0.206,0.312c0.977,1.692,0.395,3.851-1.291,4.824l-74.198,42.839     C399.688,181.084,399.082,181.245,398.464,181.245z" style="fill:#D9524C;"/></g><g><path d="M443.316,139.076c-0.285,0-0.559-0.03-0.837-0.097c-0.94-0.23-1.741-0.831-2.226-1.668     c-1.723-2.983,0.733-4.991,5.185-8.642c2.468-2.02,5.943-4.739,10.327-8.09c0.759-0.576,1.511-1.152,2.257-1.723     c-0.007-0.16,0-0.327,0.006-0.491c-7.435,4.476-7.98,4.327-9.315,4c-0.928-0.237-1.746-0.853-2.219-1.677     c-0.219-0.373-0.353-0.771-0.425-1.174c-0.079,0.058-0.151,0.112-0.236,0.164c-0.807,0.57-1.813,0.767-2.784,0.555     c-0.97-0.215-1.801-0.828-2.292-1.683c-0.867-1.498-1.116-2.523,1.783-7.563l-13.948,8.054c-0.813,0.467-1.777,0.594-2.681,0.352     c-0.903-0.24-1.674-0.834-2.141-1.644c-0.563-0.967-0.946-1.631-0.225-3.308l-4.257,2.456c-1.686,0.979-3.845,0.4-4.827-1.292     c-0.461-0.807-0.831-1.443-0.516-2.596c-0.54,0.085-1.037,0.066-1.553-0.042c-1.067-0.224-1.989-0.895-2.528-1.829     c-0.722-1.255-0.606-2.826,0.291-3.966c1.637-2.065,3.365-4.33,4.937-6.477c-3.523,2.174-7.362,4.636-10.298,6.519     c-14.179,9.09-14.772,9.309-16.762,8.821c-0.939-0.225-1.801-0.864-2.286-1.701c-0.819-1.416-1.377-2.387,2.092-7.292     c-2.067,1.422-4.166,2.914-6.131,4.36c-0.807,0.597-1.819,0.825-2.813,0.615c-0.982-0.203-1.832-0.819-2.335-1.686     c-1.056-1.819-0.558-3.311,1.498-7.02c-1.88,1.131-3.863,2.341-5.755,3.512c-0.807,0.5-1.789,0.655-2.711,0.418     c-0.935-0.234-1.723-0.831-2.202-1.662c-0.964-1.659-0.837-3.032,1.037-5.2c-0.193-0.209-0.357-0.44-0.509-0.694     c-0.273-0.477-2.08-3.39-3.705-5.986c-2.639,1.422-7.49,4.688-11.426,7.617c-0.807,0.601-1.838,0.831-2.826,0.622     c-0.946-0.191-1.765-0.765-2.28-1.583c-4.536,2.741-6.452,3.145-8.041,2.799c-1.128-0.246-2.068-0.919-2.626-1.898     c-0.795-1.37-0.576-3.093,0.521-4.227l1.086-1.116c-0.425-0.321-0.789-0.73-1.062-1.209c-0.637-1.107-0.631-2.478,0.03-3.578     c0.079-0.133,0.164-0.267,0.236-0.406l-14.239,8.229c-1.625,0.934-3.699,0.443-4.724-1.122c-1.031-1.568-0.655-3.663,0.849-4.776     c3.936-2.917,8.15-6.152,11.789-9.057l-4.002-2.702c-0.128,0.088-0.261,0.167-0.37,0.24c-2.305,1.492-3.251,2.104-4.863,1.725     c-0.94-0.228-1.766-0.843-2.25-1.683c-0.977-1.686-0.4-3.848,1.291-4.824c0.2-0.115,0.406-0.209,0.625-0.282     c0.34-0.206,0.928-0.591,1.353-0.861c2.511-1.628,3.548-2.307,5.197-1.907c0.424,0.101,0.824,0.282,1.176,0.525l0,0l5.501,3.72     c8.053-4.87,8.217-4.824,9.77-4.43c0.922,0.236,1.71,0.84,2.189,1.662c0.576,1.006,0.782,1.931,0.4,3.032     c0.885,0.249,1.637,0.837,2.098,1.631c0.588,1.013,0.965,1.674-0.066,4.166c2.632-1.989,3.365-2.522,5.021-2.189     c0.994,0.207,1.861,0.831,2.358,1.708c0.395,0.67,0.54,1.425,0.455,2.15c0.376-0.058,0.771-0.021,1.255,0.082     c0.971,0.212,1.808,0.822,2.305,1.683c0,0.006,0,0.009,0.006,0.012c3.463-1.789,4.609-1.549,5.373-1.392     c1.116,0.228,2.068,0.913,2.62,1.874c0.279,0.434,2.189,3.508,3.614,5.797c2.195-1.279,5.652-3.645,7.951-5.221     c7.276-4.973,8.714-5.904,10.788-5.422c0.964,0.219,1.874,0.883,2.365,1.738c0.892,1.537,0.497,3.499-0.916,4.576     c-1.268,0.964-2.577,1.968-3.875,2.98c0.151,0.173,0.291,0.364,0.406,0.564c0.771,1.331,0.686,2.705-0.134,4.688     c9.363-5.979,11.486-5.537,12.535-5.313c1.171,0.242,2.135,0.928,2.717,1.932c0.746,1.301,0.595,2.935-0.382,4.072     c-0.618,0.722-1.249,1.458-1.88,2.208c17.975-11.501,20.243-12.475,22.662-11.889c1.02,0.251,1.862,0.876,2.39,1.774     c0.667,1.161,1.353,2.344-1.346,7.032c0.921-0.343,1.691-0.4,2.511-0.222c1.049,0.222,1.952,0.879,2.492,1.801     c0.509,0.895,0.6,1.94,0.291,2.877l2.923-1.692c1.474-0.846,3.329-0.531,4.439,0.746c0.964,1.113,1.122,2.671,0.467,3.933     l12.462-7.189c0.807-0.47,1.777-0.597,2.675-0.354c0.909,0.246,1.686,0.84,2.146,1.649c1.098,1.901,0.291,3.132-1.177,5.364     c-0.261,0.4-0.516,0.789-0.764,1.162c10.922-6.856,12.82-6.429,13.966-6.174c1.092,0.246,1.995,0.897,2.541,1.844     c0.843,1.458,0.534,3.311-0.733,4.424l-3.924,3.441c0.066,0.085,0.115,0.173,0.164,0.264c0.363,0.655,0.521,0.949,0.267,2.583     c1.479-0.907,3.057-1.896,4.5-2.82c1.606-1.028,3.741-0.597,4.814,0.977c1.086,1.567,0.722,3.708-0.813,4.839     c-0.807,0.6-1.625,1.204-2.443,1.813c0.479,0.315,0.897,0.737,1.164,1.219c0.977,1.686,0.4,3.848-1.286,4.824     c-0.558,0.324-1.164,0.473-1.765,0.473c-3.044,1.243-15.075,8.551-25.53,15.282C444.65,138.888,443.983,139.076,443.316,139.076z      M324.637,78.936c0.267,0.458,0.6,0.813,0.976,1.077C325.219,79.728,324.885,79.36,324.637,78.936z M325.006,76.856     c0.449,0.294,0.831,0.688,1.122,1.176C325.825,77.517,325.437,77.132,325.006,76.856z" style="fill:#D9524C;"/></g><g><path d="M119.758,476.428c-1.167,0-2.311-0.576-2.984-1.637c-1.037-1.632-0.567-3.797,1.046-4.857     c0.2-0.128,20.143-13.166,40.667-25.828c0.054-0.031,0.103-0.062,0.158-0.104c8.945-5.853,17.083-11.328,23.721-15.979     c-17.444,9.976-43.488,26.216-67.608,42.02c-0.816,0.54-1.816,0.71-2.753,0.485c-0.946-0.225-1.759-0.831-2.244-1.668     c-1.025-1.782-0.858-3.444,1.228-5.857c-4.387,2.674-8.602,5.251-12.529,7.665c-0.81,0.497-1.792,0.655-2.714,0.412     c-0.928-0.23-1.716-0.831-2.192-1.649c-0.219-0.388-0.434-0.873-0.564-1.455c-10.843,5.536-14.293,5.997-16.231,5.524     c-1.204-0.297-2.192-1.019-2.781-2.031c-0.485-0.843-0.604-1.838-0.327-2.771c0.058-0.2,0.136-0.389,0.228-0.576     c-3.957,2.347-4.576,2.207-5.734,1.94c-0.949-0.225-1.825-0.873-2.313-1.716c-0.085-0.146-0.154-0.292-0.215-0.437     c-15.549,8.071-17.968,7.489-19.576,7.095c-1.207-0.285-2.195-1.007-2.78-2.02c-1.286-2.231-1.701-2.947,9.206-12.432     c-0.725-0.285-1.353-0.801-1.774-1.522c-0.97-1.691-0.394-3.851,1.298-4.827l25.516-14.73c1.589-0.915,3.611-0.467,4.661,1.031     c1.049,1.504,0.779,3.554-0.625,4.736c-6.762,5.67-13.906,11.716-19.764,16.75c24.764-12.905,75.671-44.216,121.733-74.064     c1.637-1.056,3.824-0.595,4.882,1.049c0.325,0.491,0.503,1.037,0.555,1.589c1.467-0.248,2.683-0.255,3.656-0.03     c2.001,0.467,3.048,1.644,3.572,2.554c0.576,1,1.122,2.649,0.461,4.881c-0.228,0.765-0.543,1.832-1.75,3.5     c0.027,0.048,0.058,0.103,0.084,0.146c0.555,0.958,0.691,2.104,0.389,3.208c-0.14,0.521-0.392,1.055-0.792,1.625     c2.457-0.964,3.133-0.788,3.821-0.619c0.989,0.249,1.807,0.874,2.311,1.741c0.722,1.243,0.594,2.753-0.209,3.851     c1.489-0.321,2.171-0.157,2.753-0.024c1.152,0.273,2.098,0.971,2.668,1.947c0.988,1.716,0.858,3.359-0.977,5.664     c0.946-0.128,1.48,0.006,1.965,0.121c1.137,0.267,2.08,0.952,2.641,1.929c0.437,0.764,0.576,1.655,0.394,2.51     c2.402-1.455,4.715-2.861,6.917-4.202c1.616-0.982,3.73-0.521,4.779,1.062c1.049,1.576,0.664,3.705-0.873,4.814     c-9.452,6.848-21.717,15.828-32.366,23.779c9.388-5.913,20.085-13.063,29.903-19.965c0.813-0.569,1.822-0.77,2.792-0.552     c0.971,0.207,1.805,0.819,2.299,1.674c0.321,0.564,0.506,1.086,0.555,1.602c1.677-1.086,3.345-2.178,5-3.263     c0.813-0.527,1.811-0.703,2.756-0.485c0.946,0.225,1.755,0.831,2.241,1.674c0.437,0.752,0.655,1.504,0.616,2.311     c5.382-3.172,8.775-4.385,11.137-3.875c1.319,0.291,2.401,1.067,3.05,2.201c0.594,1.019,0.74,2.244,0.409,3.438     c-0.315,1.134-1.094,2.28-2.468,3.566c0.561,1.03,0.561,2.225,0.088,3.214l4.691-2.705c0.813-0.473,1.777-0.601,2.681-0.357     c0.907,0.242,1.677,0.843,2.144,1.649c1.088,1.88,0.47,3.414-0.982,4.93c0.613,0.377,1.119,0.898,1.489,1.528     c0.1,0.177,0.185,0.346,0.258,0.51c3.775-2.438,5.143-2.838,6.683-2.499c1.031,0.23,1.923,0.874,2.444,1.783     c1.164,2.002,0.516,3.827-1.874,6.41c0.097,0.024,0.188,0.049,0.297,0.073c0.922,0.236,1.741,0.854,2.214,1.674     c0.527,0.903,0.625,1.982,0.273,2.965c-0.528,1.449-1.062,3.026-1.565,4.536l17.976-10.382c1.686-0.977,3.851-0.395,4.82,1.292     c0.795,1.376,0.886,2.262-0.285,4.117c1.231-0.049,2.475,0.595,3.154,1.74c0.982,1.687,0.424,3.852-1.262,4.84     c-13.894,8.156-13.905,8.156-15.458,7.75c-0.916-0.236-1.698-0.837-2.165-1.655c-0.68-1.158-0.843-1.989-0.164-3.366     l-10.403,6.004c-1.686,0.971-3.848,0.4-4.824-1.291c-0.6-1.037-1.049-1.82,0.7-7.587c-5.527,3.189-13.405,7.92-20.709,12.396     c-0.815,0.497-1.798,0.643-2.72,0.406c-0.922-0.23-1.71-0.831-2.189-1.655c-0.521-0.904-0.63-1.704-0.455-2.438     c-2.129,0.897-3.684,1.135-4.997,0.844c-1.255-0.279-2.292-1.025-2.914-2.104c-0.188-0.321-0.315-0.661-0.391-1.007     c-0.567,0.176-1.17,0.212-1.762,0.097c-0.992-0.2-1.853-0.818-2.362-1.692c-0.461-0.8-0.707-1.533-0.634-2.31l-5.24,3.025     c-0.813,0.468-1.777,0.589-2.68,0.353c-0.91-0.243-1.677-0.831-2.147-1.65c-0.458-0.788-0.934-1.612-0.531-2.959     c-10.612,6.61-10.974,6.513-12.635,6.106c-0.776-0.193-1.483-0.661-1.978-1.291c-5.285,3.153-8.502,4.306-10.782,3.808     c-1.279-0.284-2.338-1.036-2.972-2.141c-0.648-1.121-0.7-2.067-0.342-2.91c-8.951,4.729-10.458,4.372-11.762,4.063     c-1.101-0.261-2.004-0.928-2.55-1.874c-0.006-0.006-0.015-0.024-0.021-0.03c-1.604,0.352-2.407,0.17-3.068,0.024     c-1.286-0.285-2.335-1.03-2.957-2.116c-1.386-2.401-0.509-3.941,3.881-7.599c-19.082,11.007-20.128,10.733-21.65,10.352     c-0.925-0.236-1.777-0.879-2.256-1.698c-0.519-0.909-0.697-1.965-0.521-3.038c-9.685,6.119-16.535,10.353-16.653,10.425     C121.034,476.258,120.395,476.428,119.758,476.428z M123.005,435.646c-8.514,5.604-16.807,11.158-24.285,16.173     c-8.25,5.52-14.1,9.425-18.293,12.166c9.412-4.882,30.752-16.083,52.063-28.224c42.706-24.343,53.673-34.409,56.459-38.133     c-3.572,0.86-12.459,4.463-34.243,17.769c-4.612,2.813-9.394,5.815-14.233,8.902L123.005,435.646z" style="fill:#8E1C3F;"/></g><g><path d="M194.886,233.329c-1.222,0-2.411-0.633-3.066-1.768c-0.976-1.689-0.394-3.851,1.292-4.827     l70.741-40.84c1.691-0.977,3.851-0.397,4.833,1.294c2.135,3.708-1.94,6.431-8.696,10.946c-2.059,1.376-4.424,2.902-6.953,4.509     c0.422,1.516-0.212,3.184-1.637,4.008c-0.625,0.361-1.307,0.507-1.98,0.464c-1.947,0.977-6.953,4.545-10.698,7.214     c-13.706,9.767-18.523,12.689-21.968,11.94c-1.228-0.267-2.234-0.997-2.847-2.053c-0.209-0.367-0.361-0.722-0.452-1.067     l-16.808,9.703C196.09,233.174,195.483,233.329,194.886,233.329z" style="fill:#8E1C3F;"/></g><g><path d="M219.283,164.838c-0.322,0-0.588-0.07-0.889-0.146c-0.919-0.233-1.734-0.849-2.208-1.674     c-0.976-1.686-0.397-3.848,1.295-4.824c0.367-0.215,0.764-0.355,1.165-0.425c3.144-1.428,19.754-11.461,34.464-20.343     c51.374-31.022,52.096-30.831,54.527-30.213c0.922,0.234,1.783,0.88,2.25,1.704c0.977,1.692,0.4,3.848-1.292,4.824     c-0.527,0.31-1.109,0.461-1.686,0.473c-4.772,1.856-30.916,17.641-50.146,29.261     C225.684,162.242,221.299,164.838,219.283,164.838z" style="fill:#8E1C3F;"/></g><g><path d="M197.627,162.36c-0.357,0-0.658-0.055-0.964-0.133c-0.928-0.23-1.834-0.907-2.313-1.734     c-0.237-0.406-0.467-0.94-0.588-1.589c-0.149-0.018-0.292-0.04-0.425-0.076c-1.058-0.258-1.931-0.904-2.462-1.822     c-0.977-1.689-0.394-3.848,1.292-4.828c0.771-0.439,1.635-0.561,2.438-0.406c0.855-0.288,2.213-0.943,3.963-1.88     c5.709-5.3,18.866-14.688,50.064-32.292c4.779-2.699,9.564-5.349,14.167-7.866c26.847-16.865,34.604-20.658,38.224-19.773     c1.128,0.276,2.068,0.961,2.632,1.938c0.485,0.84,0.601,1.838,0.321,2.766c-0.036,0.13-0.085,0.258-0.133,0.376     c0.594,0.333,1.085,0.815,1.431,1.413c0.971,1.692,0.395,3.851-1.298,4.824c-0.746,0.43-1.582,0.561-2.377,0.418     c-5.785,1.847-34.7,19.807-55.989,33.03C206.657,158.922,200.417,162.36,197.627,162.36z" style="fill:#8E1C3F;"/></g><g><path d="M216.966,135.198c-0.306,0-0.612-0.042-0.916-0.121c-0.904-0.243-1.677-0.834-2.144-1.646     c-0.94-1.635-0.728-2.811,0.312-3.936c-0.07-0.012-0.143-0.027-0.209-0.042c-0.955-0.225-1.771-0.831-2.259-1.677     c-0.691-1.198-0.764-2.347-0.318-3.505c-2.183,0.613-3.912,0.767-5.215,0.464c-1.461-0.337-2.653-1.192-3.354-2.408     c-1.844-3.199,0.767-4.797,5.516-7.69c2.814-1.716,6.859-4.108,11.686-6.965c13.126-7.759,31.107-18.393,46.48-28.481     c15.137-9.933,21.989-15.627,25.088-18.766c-13.323,5.413-49.982,28.506-82.718,51.092c-0.81,0.561-1.822,0.755-2.784,0.54     c-0.961-0.215-1.786-0.828-2.28-1.683c-2.01-3.475,0.443-6.413,13.105-15.707c6.959-5.106,16.838-11.889,29.358-20.149     c5.379-3.554,10.8-7.083,15.895-10.37c0.121-0.891,0.728-1.68,1.667-2.556l-0.006-0.012c0.019-0.015,0.043-0.03,0.066-0.045     c0.57-0.527,1.262-1.083,2.032-1.713c1.534-1.237,2.953-2.387,4.239-3.445c-0.71-1.498-0.279-3.314,1.066-4.33     c0.959-0.718,1.936-1.47,2.924-2.241c-0.104-0.085-0.2-0.173-0.291-0.273c-1.177-1.219-1.328-3.096-0.353-4.481     c0.085-0.121,0.183-0.246,0.268-0.367c-17.414,11.304-20.54,10.628-21.714,10.373c-1.191-0.258-2.171-0.961-2.759-1.98     c-0.218-0.376-0.358-0.779-0.427-1.189c-0.595,0.173-1.231,0.197-1.841,0.046c-0.943-0.225-1.747-0.825-2.231-1.665     c-1.052-1.822-0.643-3.356,1.644-6.452c-4.397,2.747-9.336,5.973-13.848,9.033c-0.813,0.552-1.813,0.743-2.771,0.519     c-0.958-0.218-1.78-0.825-2.268-1.674c-1.155-1.998-0.637-2.92,2.471-7.268c-0.273,0.185-0.543,0.364-0.807,0.546     c-16.198,10.858-19.8,12.79-22.702,12.107c-1.098-0.252-2.004-0.919-2.56-1.871c-0.552-0.958-0.752-1.928-0.519-3.002     c-1.091,0.795-2.168,1.586-3.226,2.372c-0.807,0.6-1.834,0.831-2.823,0.622c-0.989-0.203-1.841-0.819-2.344-1.692     c-1.304-2.262-0.142-3.72,2.666-7.253c0.073-0.091,0.148-0.188,0.23-0.288c-5.291,3.521-6.986,4.203-8.857,3.781     c-1.034-0.23-1.929-0.888-2.453-1.795c-0.455-0.782-0.637-1.446-0.564-2.089c-5.707,3.433-11.531,6.983-16.565,10.091     c-0.816,0.497-1.798,0.652-2.723,0.418c-0.925-0.237-1.716-0.831-2.192-1.659c-0.292-0.506-0.461-1.004-0.528-1.486     c-0.045-0.012-0.094-0.027-0.146-0.04c-0.931-0.23-1.777-0.864-2.253-1.695c-0.516-0.895-0.601-1.922-0.303-2.847l-0.182,0.103     c-1.691,0.979-3.848,0.4-4.824-1.292c-0.597-1.031-0.736-1.94-0.43-2.896c-3.293,2.29-6.698,4.785-9.852,7.208     c-0.81,0.619-1.847,0.864-2.838,0.664c-1-0.194-1.865-0.815-2.377-1.698c-0.373-0.646-0.57-1.262-0.588-1.886     c-9.139,5.588-15.04,8.123-17.586,7.578c-1.225-0.267-2.229-0.982-2.826-2.022c-0.755-1.31-0.598-2.951,0.394-4.087     c1.519-1.744,3.214-3.69,4.942-5.67l-10.051,5.804c-1.689,0.973-3.851,0.397-4.828-1.292c-1.386-2.411-0.346-4.345,3.39-8.002     c-6.219,3.763-13.302,8.181-19.988,12.462c-1.631,1.037-3.796,0.579-4.857-1.034c-0.236-0.361-0.4-0.755-0.491-1.155     c-3.608,1.541-4.703,1.292-5.346,1.146c-1.134-0.251-2.068-0.931-2.629-1.904c-0.628-1.079-0.634-2.41-0.019-3.499     c0.992-1.768,2.038-3.663,3.014-5.473c-1.186,0.858-2.334,1.707-3.296,2.417c-7.875,5.828-10.737,7.817-13.426,7.25     c-1.113-0.23-2.065-0.916-2.629-1.886c-0.977-1.692-0.395-3.848,1.294-4.824c0.704-0.409,1.492-0.54,2.238-0.443     c1.729-0.9,5.637-3.79,8.323-5.776c8.966-6.628,12.375-8.89,15.382-8.266c1.186,0.246,2.171,0.952,2.769,1.986     c0.852,1.474,1.264,2.189-2.82,9.934c6.956-3.996,17.383-10.74,26.474-17.022c0.813-0.561,1.819-0.758,2.784-0.543     c0.961,0.222,1.792,0.828,2.287,1.68c0.233,0.41,0.409,0.81,0.518,1.216c6.656-3.515,7.759-3.245,8.626-3.032     c1.004,0.243,1.841,0.864,2.347,1.744c1.003,1.743,0.712,3.45-0.749,5.552l6.316-3.645c1.686-0.971,3.839-0.4,4.818,1.282     c1.286,2.202,0.676,2.905-3.281,7.48c-1.549,1.792-3.56,4.108-5.622,6.48c6.816-4.188,15.364-9.924,22.957-15.364     c0.813-0.582,1.832-0.794,2.805-0.582c0.977,0.212,1.813,0.825,2.313,1.686c0.349,0.609,0.54,1.207,0.57,1.813     c3.969-2.062,6.843-2.926,8.617-2.568c1.325,0.261,2.411,1.022,3.057,2.147c0.258,0.442,0.427,0.867,0.515,1.292l8.721-5.033     c1.689-0.977,3.845-0.397,4.824,1.292c0.409,0.713,0.625,1.407,0.588,2.156c13.02-7.987,14.19-8.16,16.031-7.705     c0.931,0.233,1.819,0.895,2.301,1.726c0.091,0.157,0.167,0.321,0.233,0.485c2.065-0.846,2.626-0.704,3.199-0.558     c0.928,0.237,1.777,0.871,2.253,1.698c0.515,0.892,0.6,1.925,0.303,2.847c0.897,0.3,1.64,0.904,2.113,1.722     c0.746,1.298,0.597,2.92-0.37,4.057c-0.13,0.152-0.257,0.303-0.388,0.455c7.417-4.518,12.39-6.541,14.846-6.031     c1.28,0.267,2.329,1.01,2.957,2.092c0.373,0.643,0.519,1.358,0.467,2.047c4.066-2.514,5.207-2.744,6.634-2.411     c0.956,0.221,1.877,0.9,2.365,1.747c0.81,1.392,0.792,2.732-0.461,5.173c13.16-8.184,15.128-7.738,16.301-7.471     c1.067,0.249,1.953,0.894,2.49,1.825c0.697,1.207,0.818,2.113,0.115,3.493c19.879-12.253,21.759-11.801,23.081-11.477     c1.013,0.246,1.855,0.87,2.364,1.753c0.383,0.667,0.528,1.404,0.461,2.116c0,0.003,0.007,0.003,0.007,0.003     c0.976,0.212,1.813,0.822,2.311,1.683c0.807,1.389,1.098,1.904-1.862,6.468c1.498-0.604,2.038-0.473,2.698-0.315     c0.94,0.227,1.789,0.861,2.274,1.701c1.511,2.608,0.049,5.176-4.36,9.282c1.838-0.679,2.499-0.528,3.087-0.388     c1.019,0.24,1.874,0.87,2.396,1.768c0.873,1.51,0.504,3.405-0.807,4.487c1.971-0.424,2.893-0.218,3.59-0.061     c1.365,0.306,2.48,1.101,3.136,2.232c1.213,2.107,1.177,4.484-1.341,7.89c1.044-0.367,1.613-0.297,2.287-0.14     c0.958,0.218,1.855,0.882,2.353,1.726c1.479,2.58,0.813,5.361-2.771,9.105c0.922,0.354,1.68,0.988,2.159,1.828     c2.02,3.487-1.358,6.956-5.779,10.477l1.637,2.896c-0.896,0.513-79.543,45.919-80.334,46.38     C218.191,135.038,217.582,135.198,216.966,135.198z M279.79,89.312c-10.909,6.255-25.173,15.052-40.043,24.6     C251.779,106.78,267.759,97.178,279.79,89.312z" style="fill:#8E1C3F;"/></g><g><path d="M151.938,409.453c-0.379,0-0.734-0.042-1.067-0.109c-1.201-0.278-2.192-0.994-2.79-2.031     c-0.409-0.71-0.63-1.413-0.646-2.141c-4.264,2.565-5.024,2.541-6.337,2.231c-0.943-0.23-1.826-0.873-2.311-1.722     c-1.613-2.76,0.558-4.33,2.853-5.998c0.513-0.37,1.116-0.807,1.805-1.298c-0.358-0.279-0.664-0.631-0.895-1.031     c-0.961-1.661-0.889-3.202,0.864-5.379c-0.633-0.303-1.17-0.801-1.528-1.413c-0.986-1.716-1.683-2.923,5.069-9.133     c-1.395,0.297-2.898-0.267-3.723-1.516c-1.025-1.571-0.649-3.669,0.861-4.785c0.713-0.521,1.428-1.055,2.144-1.577     c-1.159-0.291-2.107-1-2.69-2.007c-0.897-1.559-1.977-3.42,4.855-10.115c-0.709,0.2-1.113,0.097-1.683-0.043     c-0.928-0.23-1.747-0.849-2.226-1.68c-1.353-2.341-0.752-4.778,3.414-8.763c-0.309-0.273-0.579-0.589-0.791-0.946     c-0.507-0.885-0.704-1.638-0.564-2.377c-1.043-0.455-1.819-1.383-2.059-2.517c-0.276-1.298,0.206-2.645,1.243-3.481l11.44-9.205     c-4.809,2.965-9.73,6.052-14.518,9.078c-0.81,0.516-1.795,0.679-2.732,0.448c-0.934-0.224-1.734-0.83-2.217-1.661     c-2.38-4.124,2.478-7.829,10.155-13.026c0.079-0.049,0.151-0.104,0.227-0.146c-0.148-1.188,0.303-2.408,1.289-3.202l5.604-4.506     l-0.803,0.461c-0.813,0.473-1.777,0.595-2.681,0.352c-0.907-0.242-1.677-0.837-2.147-1.644c-0.949-1.644-0.761-3.093,0.698-4.852     c-0.516-0.309-0.946-0.739-1.25-1.268c-1.276-2.219-0.364-3.93,2.362-6.24c-0.106-0.145-0.203-0.291-0.291-0.442     c-0.355-0.612-0.576-1.219-0.658-1.837c-5.148,3.014-6.401,3.189-7.835,2.844c-1.004-0.249-1.844-0.873-2.353-1.753     c-0.37-0.648-0.519-1.364-0.461-2.056c-0.979-0.327-1.783-0.977-2.292-1.861c-1.631-2.832,0.776-4.7,3.105-6.508     c1.104-0.849,2.629-1.988,4.533-3.396c-0.582-0.315-1.085-0.794-1.416-1.364c-1.116-1.935-0.437-3.536,1.034-5.027     c-1.261-0.285-2.295-1.037-2.917-2.104c-2.353-4.081,2.401-8.387,7.465-12.444c0.173-0.14,0.346-0.279,0.527-0.424     c-0.631-1.414-0.425-2.669,0.819-4.167c-0.54-0.327-0.989-0.776-1.313-1.34c-1.456-2.522,0.13-4.718,3.199-7.462     c-0.998-0.276-1.825-0.904-2.337-1.789c-0.173-0.303-0.301-0.63-0.379-0.97l-0.367,0.212c-0.81,0.47-1.777,0.597-2.681,0.354     c-0.903-0.243-1.674-0.833-2.144-1.646c-0.576-1-0.716-2.204-0.388-3.387c0.027-0.103,0.058-0.215,0.094-0.336     c-0.122-0.024-0.246-0.058-0.373-0.088c-0.925-0.234-1.753-0.853-2.229-1.68c-0.47-0.815-0.597-1.78-0.354-2.683     c0.243-0.907,0.84-1.677,1.649-2.147c5.858-3.369,12.104-6.989,18.596-10.771c-0.215,0.1-0.431,0.197-0.64,0.294     c-1.932,1.122-3.754,2.183-5.455,3.171c-0.813,0.473-1.776,0.601-2.683,0.361c-0.115-0.03-0.23-0.07-0.343-0.112     c-5.831,1.947-7.914,1.489-9.194,1.207c-2.234-0.494-3.387-1.78-3.96-2.771c-0.94-1.625-0.439-3.705,1.137-4.73l6.741-4.372     c-8.869,3.178-12.062,2.517-13.772,2.159c-2.98-0.625-4.497-2.295-5.243-3.59c-1.467-2.538-1.131-5.034,7.235-11.938     c-1.956,1.183-3.778,2.28-5.431,3.284c-4.96,2.999-9.133,5.519-12.077,7.283c-5.907,3.542-5.907,3.542-7.426,3.153     c-0.919-0.233-1.707-0.834-2.183-1.659c-0.643-1.11-0.904-2.159-0.512-3.363c-5.698,3.478-6.237,3.348-7.554,3.032     c-0.937-0.23-1.783-0.855-2.268-1.695c-0.652-1.131-0.807-2.483-0.443-3.812c0.443-1.598,1.74-3.32,4.048-5.349     c-0.855-0.258-1.583-0.834-2.032-1.61c-0.519-0.904-1.028-2.393-0.491-4.36c0.049-0.173,0.104-0.346,0.167-0.525     c-4.463,2.305-6.474,2.748-7.917,2.399c-1.055-0.258-1.935-0.91-2.465-1.829c-0.158-0.273-0.273-0.558-0.352-0.846     c-1.061,0.252-1.538,0.13-2.007,0.012c-0.992-0.249-1.819-0.873-2.323-1.747c-0.461-0.797-0.576-1.707-0.388-2.544     c-0.503-0.261-0.949-0.652-1.289-1.149c-1.07-1.583-0.691-3.723,0.849-4.842c0.015-0.012,0.151-0.112,0.397-0.288     c-0.115-0.012-0.23-0.03-0.345-0.054c-0.974-0.212-1.816-0.822-2.311-1.689c-0.5-0.861-0.986-2.237-0.628-4.039     c-3.454,1.695-5.425,2.653-5.516,2.696c-1.71,0.821-3.766,0.148-4.66-1.528c-0.318-0.604-0.446-1.262-0.403-1.898     c-0.209,0.115-0.428,0.222-0.64,0.334c-1.983,1.028-3.208,1.661-3.547,1.84c-1.237,0.737-2.796,0.649-3.942-0.224     c-1.165-0.889-1.665-2.405-1.25-3.812c0.261-0.889,0.367-1.237,1.547-1.965l-0.019-0.04c0.045-0.027,0.579-0.358,1.553-0.961     c-0.291-0.228-0.555-0.503-0.771-0.825c-1.055-1.583-0.676-3.711,0.861-4.827c0.273-0.2,21.031-15.231,47.894-33.548     c-1.292,0.698-2.568,1.395-3.839,2.08c-0.879,0.601-1.753,1.195-2.62,1.783c-39.509,26.832-42.535,28.509-45.455,27.833     c-1.016-0.23-1.893-0.876-2.408-1.765c-0.716-1.243-0.867-2.735-0.431-4.202c0.215-0.725,0.606-1.489,1.183-2.295     c-0.44-1.504,0.167-3.163,1.564-4.009c0.382-0.233,39.152-23.693,78.037-46.696c3.727-2.207,7.283-4.306,10.679-6.307     c20.382-13.366,38.475-24.652,52.872-32.381c0.064-0.082,0.13-0.164,0.194-0.246c-19.694,8.229-96.384,55.237-144.429,85.708     c-0.81,0.512-1.798,0.676-2.732,0.446c-0.937-0.228-1.734-0.831-2.22-1.662c-1.371-2.374-0.067-4.521,2.195-6.649     c-0.825,0.109-1.273-0.006-1.686-0.112c-1.061-0.264-1.938-0.913-2.462-1.831c-0.364-0.622-0.509-1.304-0.47-1.971     c-1.938,0.704-2.514,0.555-3.12,0.4c-0.922-0.233-1.798-0.892-2.271-1.713c-0.8-1.383-0.561-3.081,0.485-4.193     c-0.358-0.276-0.667-0.622-0.897-1.025c-1.062-1.834-1.252-3.912,2.238-7.823L42,140.165c-1.691,0.976-3.848,0.394-4.824-1.292     c-0.912-1.577-0.885-3.096,0.516-5.061c-0.813-0.258-1.531-0.81-1.992-1.601c-1.485-2.571-0.254-5.109,3.563-8.563     c-0.106-0.143-0.206-0.291-0.294-0.449c-0.961-1.665-0.416-3.787,1.222-4.785c18.775-11.416,39.122-24.994,50.313-33.894     c-8.72,5.157-20.609,12.956-29.63,18.878c-26.022,17.074-28.593,18.327-31.31,17.678c-1.034-0.242-1.889-0.876-2.411-1.78     c-0.903-1.562-1.819-3.153,4.215-8.869c-0.9-0.243-1.674-0.834-2.144-1.646c-1.695-2.935-0.085-5.297,6.541-10.382     c-0.234-0.009-0.467-0.045-0.698-0.103c-0.925-0.236-1.713-0.833-2.189-1.656c-2.062-3.572,2.038-6.67,6.786-10.261     c0.27-0.203,0.545-0.409,0.833-0.625c-0.567-1.286-0.597-3.211,3.202-8.369c-0.758,0.533-1.51,1.073-2.234,1.601     c-0.813,0.588-1.838,0.801-2.811,0.595c-0.982-0.207-1.822-0.822-2.323-1.686c-0.333-0.579-0.527-1.128-0.582-1.667     c-0.964-0.304-1.759-0.938-2.265-1.808c-0.834-1.449-0.54-3.281,0.707-4.396l9.312-8.348c-0.424-1.186-0.182-2.504,0.616-3.457     l-4.433,2.559c-1.671,0.964-3.809,0.412-4.797-1.246c-0.991-1.653-0.473-3.793,1.167-4.813     c5.44-3.381,11.037-6.949,16.295-10.397c-1.013-1.016-1.313-2.559-0.734-3.894l0.977-2.25c-1.046,0.494-1.847,0.609-2.79,0.397     c-0.956-0.218-1.844-0.87-2.338-1.719c-0.97-1.692-0.394-3.854,1.298-4.824c0.364-0.212,0.749-0.352,1.14-0.421     c0.728-0.431,2.116-1.383,3.09-2.05c4.266-2.92,5.858-4.018,7.89-3.554c0.961,0.218,1.877,0.882,2.365,1.737     c0.561,0.967,0.63,2.141,0.185,3.168l-0.973,2.253c17.107-10.197,17.532-10.094,19.109-9.679     c0.918,0.233,1.716,0.837,2.189,1.656c0.322,0.567,0.561,1.11,0.637,1.686c1.631-0.728,3.581-0.118,4.497,1.461     c1.58,2.738,2.965,5.136-29.397,27.75c-0.17,0.649-0.528,1.258-1.059,1.731l-0.81,0.728c0.51,0.307,0.94,0.74,1.24,1.268     c0.112,0.191,0.209,0.379,0.288,0.564c0.767-0.112,1.213-0.015,1.562,0.058c1.14,0.243,2.077,0.919,2.644,1.901     c0.792,1.367,0.57,3.102-0.537,4.233c-2.723,2.783-5.594,5.87-8.123,8.727c2.441-1.601,4.888-3.257,6.868-4.591     c12.496-8.436,14.185-9.348,16.453-8.82c1.007,0.233,1.88,0.873,2.393,1.761c0.949,1.646,0.431,3.745-1.177,4.758     c-2.522,1.583-5.082,3.214-7.62,4.848c0.221,0.219,0.412,0.464,0.57,0.737c0.734,1.271,0.858,2.517,0.288,3.917     c2.086-0.725,3.757-1.024,4.912-0.779c1.31,0.282,2.387,1.043,3.026,2.146c0.549,0.952,0.606,2.059,0.242,3.02     c13.214-8.208,19.006-10.846,22.044-10.124c1.168,0.279,2.135,0.982,2.711,1.989c0.731,1.265,1.137,2.65,0.206,4.715     c5.622-3.224,8.512-4.151,10.485-3.693c1.162,0.267,2.123,0.967,2.702,1.971c0.521,0.907,0.597,1.953,0.291,2.875l8.645-4.988     c1.686-0.977,3.842-0.397,4.818,1.283c0.63,1.083,0.622,2.359,0.088,3.399l17.954-10.367c1.692-0.973,3.848-0.397,4.824,1.292     c0.155,0.264,0.279,0.521,0.37,0.764c12.52-5.979,15.528-5.306,17.253-4.921c2.01,0.446,3.056,1.619,3.581,2.523     c0.761,1.319,0.576,2.929-0.352,4.036c0.385,0.285,0.713,0.652,0.955,1.073c0.616,1.067,0.634,1.986,0.343,2.769     c8.775-5.313,14.315-8.639,14.455-8.724c1.665-0.995,3.817-0.47,4.833,1.186c0.625,1.025,0.667,2.244,0.218,3.272     c6.656-2.941,8.087-2.596,9.203-2.32c1.125,0.276,2.056,0.961,2.61,1.922c0.297,0.519,0.594,1.204,0.746,2.035     c10.449-5.03,18.214-7.459,22.529-6.471c2.498,0.573,3.79,2.022,4.433,3.135c1.177,2.035,0.491,3.678-1.622,5.658     c0.209,0.04,0.403,0.082,0.579,0.118c2.787,0.594,4.206,2.165,4.906,3.378c0.124,0.209,0.243,0.452,0.352,0.722     c1.525-0.37,2.153-0.215,2.699-0.076c1.067,0.267,1.95,0.925,2.483,1.85c0.682,1.183,1.322,3.156,0.5,5.84     c-1.019,3.302-3.812,12.374-57.208,43.451c0.876,0.006,1.483,0.137,1.983,0.246c2.217,0.473,3.36,1.75,3.93,2.738     c0.185,0.315,0.313,0.616,0.397,0.907c1.252-0.215,2.565,0.267,3.375,1.313c2.786-1.095,4.657-1.41,5.916-1.101     c1.158,0.279,2.117,0.985,2.689,1.977c0.561,0.976,0.704,2.138,0.397,3.269c-0.843,3.087-5.47,6.692-20.307,15.449     c0.003,0.003,0.006,0.003,0.012,0.003c1.061,0.261,1.94,0.913,2.474,1.834c0.503,0.876,1,2.319,0.476,4.212     c-0.321,1.164-1.049,2.398-2.198,3.735c0.843,0.367,1.534,0.974,1.989,1.762c0.409,0.712,0.667,1.401,0.694,2.116     c16.832-9.536,18.032-9.229,19.53-8.845c0.925,0.24,1.81,0.904,2.283,1.723c1.743,3.014-0.388,4.427-5.049,7.514     c-2.556,1.688-6.21,4.057-10.543,6.871c-8.375,5.434-23.824,15.455-37.344,24.734c11.989-6.865,28.793-15.771,51.308-27.557     c13.126-6.874,28.181-14.758,41.723-22.171c0.858-0.494,1.707-0.989,2.55-1.477c21.704-15.164,37.581-26.89,37.823-27.068     c0.807-0.597,1.832-0.825,2.814-0.616c0.988,0.203,1.837,0.819,2.341,1.692c0.176,0.294,0.346,0.661,0.467,1.092     c3.11-1.689,3.427-1.604,4.506-1.316c1.358,0.361,2.365,1.486,2.583,2.862c0.219,1.38-0.388,2.759-1.564,3.518l-83.146,53.924     c1.004-0.561,2.022-1.134,3.054-1.713c11.316-6.35,23.839-13.378,34.604-19.618c16.148-10.934,27.429-18.854,27.617-18.987     c0.813-0.573,1.818-0.773,2.795-0.564c0.971,0.219,1.802,0.828,2.293,1.686c0.418,0.715,0.594,1.531,0.521,2.356     c1.346-0.567,1.722-0.467,2.316-0.309c0.909,0.239,1.686,0.837,2.152,1.649c0.546,0.946,0.686,2.071,0.395,3.178     c-0.291,1.073-0.686,2.538-6.677,7.268c0.31,0.276,0.576,0.604,0.794,0.974c0.474,0.818,0.601,1.792,0.346,2.701     c-0.254,0.913-0.854,1.686-1.68,2.147c-4.045,2.262-8.102,4.542-12.171,6.841c1.067,0.127,2.067,0.74,2.644,1.744     c0.521,0.894,0.655,1.956,0.377,2.986c-0.644,2.365-1.517,5.604-64.456,43.015c-10.076,5.988-20.167,11.914-29.182,17.165     c-0.379,0.498-0.858,0.998-1.41,1.516c0.333,0.003,0.646,0.045,0.955,0.119c1.088,0.251,1.992,0.913,2.538,1.861     c0.294,0.507,0.485,1.007,0.579,1.507c3.178-1.938,4.506-2.253,5.916-1.941c1.04,0.23,1.932,0.879,2.459,1.792     c0.968,1.68,0.403,3.827-1.27,4.809c-2.368,1.392-4.767,2.826-7.171,4.285c0.112,0.021,0.23,0.048,0.367,0.076     c0.961,0.215,1.795,0.828,2.289,1.686c0.594,1.022,0.813,2.053,0.585,3.172c1.216-0.346,2.041-0.334,2.79-0.155     c1.055,0.257,1.932,0.907,2.468,1.832c0.913,1.592,0.464,3.617-1.046,4.666c-2.289,1.595-4.754,3.306-7.313,5.095     c0.794,0.327,1.449,0.903,1.883,1.649c0.091,0.163,0.17,0.315,0.24,0.473c1.744-0.661,2.841-0.746,3.775-0.527     c1.059,0.255,1.932,0.903,2.465,1.825c1.931,3.348-1.443,5.628-5.015,8.054c-0.573,0.388-1.195,0.807-1.865,1.243     c0.403,0.285,0.746,0.661,1.001,1.098c0.066,0.115,0.127,0.236,0.185,0.346c3.245-1.334,4.164-1.122,4.773-0.982     c1.067,0.255,1.953,0.909,2.489,1.837c1.741,3.009-0.609,4.621-4.878,7.563c-0.04,0.024-0.076,0.055-0.112,0.079     c0.324,0.23,0.612,0.521,0.846,0.867c1.046,1.522,0.743,3.59-0.694,4.754l-7.898,6.355c0.324-0.006,0.64,0.043,0.955,0.115     c0.903,0.249,1.674,0.844,2.144,1.65c0.228,0.399,0.385,0.782,0.473,1.151c1.116-0.291,1.585-0.176,1.983-0.078     c1.01,0.248,1.844,0.873,2.35,1.752c0.873,1.511,0.515,3.427-0.843,4.519l-7.75,6.24c4.369-2.45,4.7-2.365,5.846-2.056     c0.907,0.236,1.686,0.83,2.156,1.644c0.831,1.442,0.534,3.244-0.643,4.342c0.243,0.236,0.458,0.503,0.631,0.801     c0.998,1.722,0.542,3.08-0.57,4.299c0.828-0.176,1.361-0.109,1.907,0.03c1,0.255,1.831,0.874,2.341,1.753     c0.918,1.595,0.461,3.633-1.059,4.676c-8.735,6.01-17.78,12.498-25.583,18.356c10.143-6.962,11.419-7.726,13.508-7.247     c0.961,0.213,1.865,0.874,2.356,1.729c1.201,2.074,0.482,3.639-1.919,5.907c0.937,0.151,1.804,0.673,2.371,1.521     c1.034,1.553,0.682,3.639-0.797,4.767c-3.269,2.499-6.598,5.064-9.864,7.605c0.324-0.183,0.64-0.364,0.946-0.546     c1.944-1.116,3.566-2.044,4.703-2.687c1.919-1.098,4.818-2.741,6.592,0.297c1.589,2.753-0.619,4.476-2.602,5.846     c0.849,0.322,1.543,0.916,1.998,1.698c0.349,0.601,0.5,1.268,0.467,1.929c0.297,0.012,0.573,0.049,0.831,0.109     c1.104,0.261,2.017,0.928,2.568,1.892c0.746,1.286,0.686,2.469,0.14,3.566c0.061,0.018,0.124,0.024,0.185,0.042     c1.031,0.23,1.92,0.886,2.438,1.783c0.977,1.691,0.397,3.851-1.292,4.827c-0.598,0.346-1.271,0.497-1.892,0.473     c-2.205,1.05-8.493,5.38-13.624,8.909C162.33,405.408,155.792,409.453,151.938,409.453z M182.715,127.193     c0.015,0.085,0.027,0.17,0.04,0.254c12.978-7.483,23.891-14.178,32.608-20.009c9.615-6.438,15.458-11.11,19-14.421     C227.209,99.473,212.591,109.734,182.715,127.193z M220.729,86.88c-3.087,2.095-6.644,4.472-10.652,7.113     c-7.022,4.633-15.488,10.122-25.318,16.429c27.132-15.831,41.316-23.391,48.985-26.926c0.006-0.012,0.015-0.027,0.018-0.036     C232.449,83.239,229.062,83.445,220.729,86.88z M53.21,32.795c0.134,0.158,0.258,0.327,0.364,0.509     C53.465,33.117,53.341,32.947,53.21,32.795z" style="fill:#8E1C3F;"/></g></g></g><g id="Layer_1"/></svg>