<?xml version="1.0" ?><!DOCTYPE svg  PUBLIC '-//W3C//DTD SVG 1.1//EN'  'http://www.w3.org/Graphics/SVG/1.1/DTD/svg11.dtd'><svg height="512px" style="enable-background:new 0 0 512 512;" version="1.1" viewBox="0 0 512 512" width="512px" xml:space="preserve" xmlns="http://www.w3.org/2000/svg" xmlns:xlink="http://www.w3.org/1999/xlink"><g id="_x38_7"><g><g><path d="M140.37,128.391c-0.333,0-0.627-0.069-0.994-0.164c-0.934-0.224-1.759-0.846-2.241-1.68     c-1.74-3.023,0.076-5.934,8.8-13.008c-0.24-1.028-0.012-2.128,0.661-2.986l0.579-0.734c-9.021,6.186-10.698,7.15-12.896,6.656     c-1.016-0.23-1.892-0.874-2.408-1.765c-1.249-2.165-0.797-3.075,4.118-9.736c-0.967-0.27-1.792-0.904-2.292-1.771     c-0.976-1.692-0.397-3.851,1.292-4.824c0.555-0.325,1.161-0.476,1.762-0.476c0.006,0,0.012,0,0.015,0     c0.858-0.531,2.301-1.613,3.235-2.316c3.314-2.486,4.982-3.736,7.068-3.312c1.04,0.212,1.941,0.861,2.471,1.777     c1.022,1.771,0.797,3.008-1.84,6.853c8.59-5.81,11.431-7.238,13.866-6.686c1.098,0.246,2.01,0.91,2.562,1.868     c0.719,1.25,0.61,2.814-0.282,3.948l-0.54,0.685c1.395-0.416,2.966,0.067,3.872,1.313c0.44,0.604,0.658,1.307,0.673,2.001     c2.923-1.479,4.03-1.564,5.146-1.286c1.004,0.246,1.832,0.864,2.341,1.744c1.607,2.784,0.015,4.3-5.907,9.934     c-0.988,0.934-2.298,2.186-3.584,3.444c0.801,1.649,0.2,3.666-1.413,4.594c-0.279,0.158-0.567,0.279-0.858,0.355     c-0.152,0.13-0.303,0.273-0.437,0.388c-1.535,1.389-3.117,2.826-5.297,2.48c-1.161-0.179-2.168-0.876-2.762-1.904     c-0.688-1.192-0.734-2.372-0.182-3.703c-0.485,0.31-0.958,0.604-1.404,0.889C143.721,127.157,141.762,128.391,140.37,128.391z" style="fill:#212E38;"/></g><g><path d="M195.489,98.915c-0.33,0-0.627-0.066-0.991-0.158c-0.934-0.23-1.762-0.849-2.241-1.683     c-1.747-3.017,0.073-5.937,8.79-12.993c-0.249-1.034-0.015-2.15,0.667-3.011l0.57-0.716c-9.06,6.219-10.758,7.183-12.948,6.686     c-1.016-0.23-1.892-0.87-2.407-1.765c-1.25-2.168-0.804-3.084,4.108-9.67c-1-0.258-1.855-0.9-2.371-1.792     c-0.977-1.688-0.394-3.848,1.295-4.824c0.567-0.327,1.183-0.509,1.807-0.473c0.882-0.546,2.401-1.683,3.384-2.417     c3.505-2.629,5.106-3.83,7.205-3.399c1.043,0.215,1.947,0.861,2.477,1.78c1.022,1.774,0.794,3.02-1.862,6.85     c8.633-5.834,11.498-7.274,13.936-6.722c1.104,0.251,2.014,0.916,2.568,1.877c0.722,1.258,0.606,2.826-0.297,3.963l-0.519,0.655     c1.407-0.434,2.99,0.045,3.903,1.304c0.434,0.604,0.655,1.294,0.673,1.989c2.966-1.504,4.079-1.592,5.209-1.316     c1,0.245,1.834,0.864,2.344,1.75c1.616,2.798,0,4.321-6.016,9.994c-0.916,0.861-2.107,1.983-3.299,3.142     c0.876,1.668,0.288,3.748-1.362,4.703c-0.3,0.173-0.609,0.294-0.931,0.373c-0.204,0.173-0.431,0.373-0.61,0.53     c-1.734,1.522-3.377,2.953-5.57,2.599c-1.152-0.191-2.147-0.879-2.735-1.898c-0.688-1.195-0.771-2.344-0.207-3.69     c-0.461,0.294-0.907,0.573-1.334,0.843C198.867,97.675,196.891,98.915,195.489,98.915z" style="fill:#212E38;"/></g><g><path d="M125.334,66.613c-0.331,0-0.628-0.07-0.992-0.158c-0.934-0.23-1.762-0.849-2.241-1.686     c-1.734-3.002,0.061-5.9,8.675-12.902c-0.254-1.043-0.024-2.162,0.664-3.032l0.57-0.709c-9.042,6.201-10.737,7.171-12.933,6.671     c-1.016-0.23-1.892-0.874-2.407-1.765c-1.249-2.162-0.804-3.078,4.084-9.646c-1-0.258-1.862-0.904-2.38-1.795     c-0.974-1.692-0.397-3.848,1.295-4.824c0.57-0.331,1.188-0.503,1.804-0.473c0.889-0.546,2.408-1.686,3.39-2.423     c3.505-2.626,5.103-3.83,7.208-3.396c1.043,0.212,1.947,0.861,2.478,1.78c1.021,1.774,0.794,3.014-1.862,6.85     c8.639-5.843,11.504-7.284,13.945-6.726c1.101,0.246,2.014,0.916,2.565,1.871c0.728,1.258,0.612,2.826-0.291,3.966l-0.558,0.7     c1.382-0.391,2.923,0.094,3.814,1.325c0.44,0.601,0.658,1.295,0.676,1.989c3.05-1.562,4.175-1.659,5.321-1.377     c1.001,0.246,1.832,0.867,2.344,1.75c1.613,2.795,0,4.317-6,9.982c-0.982,0.931-2.292,2.159-3.569,3.405     c0.815,1.659,0.215,3.681-1.401,4.618c-0.285,0.167-0.582,0.285-0.885,0.364c-0.167,0.146-0.346,0.306-0.488,0.434     c-1.574,1.41-3.193,2.865-5.388,2.517c-1.158-0.182-2.162-0.876-2.753-1.898c-0.688-1.191-0.773-2.341-0.206-3.684     c-0.446,0.282-0.873,0.549-1.286,0.813C128.703,65.376,126.731,66.613,125.334,66.613z" style="fill:#212E38;"/></g><g><path d="M224.541,489.454c-0.315,0-0.616-0.055-0.958-0.14c-0.925-0.23-1.75-0.843-2.226-1.674     c-0.515-0.896-0.728-1.261-0.136-5.494c-0.067,0.061-0.137,0.134-0.209,0.194c-0.388,0.352-0.619,0.558-0.627,0.57     c-1.446,1.298-3.66,1.183-4.973-0.249c-0.361-0.4-0.619-0.854-0.764-1.34c-5.264,2.881-6.183,2.65-7.129,2.426     c-0.943-0.23-1.834-0.892-2.316-1.723c-0.628-1.092-0.634-2.432-0.006-3.523l0.185-0.321c-6.556,3.888-8.163,3.56-9.09,3.354     c-1.128-0.242-2.062-0.909-2.623-1.88c-0.658-1.146-0.7-2.207-0.233-3.48c-0.619,0.412-1.216,0.813-1.774,1.188     c-11.01,7.41-13.372,8.823-15.794,8.253c-1.019-0.236-1.904-0.891-2.423-1.782c-0.2-0.353-0.358-0.691-0.467-1.037     c-9.585,5.439-10.276,5.264-11.392,4.979c-0.918-0.236-1.722-0.843-2.195-1.668c-0.782-1.352-0.582-3.05,0.488-4.19l8.081-8.587     c-6.255,3.845-13.484,8.479-20.249,12.972c-1.558,1.043-3.666,0.68-4.791-0.831c-1.119-1.51-0.864-3.632,0.585-4.827l0.215-0.182     l-10.955,6.325c-1.692,0.977-3.851,0.4-4.824-1.292c-0.561-0.97-0.782-1.855-0.558-2.783c-2.526,1.098-3.796,1.219-4.83,0.964     c-1.031-0.261-1.883-0.892-2.405-1.789c-2.474-4.293,1.213-7.144,28.005-25.009c6.731-4.482,15.561-10.377,21.811-14.943     c-13.378,6.689-38.236,23.209-59.701,39.098c-0.81,0.6-1.834,0.824-2.823,0.618c-0.982-0.2-1.834-0.818-2.338-1.686     c-0.646-1.122-0.707-2.184-0.261-3.299c-6.959,4.184-10.485,5.487-12.847,4.942c-1.074-0.243-1.971-0.844-2.568-1.704     c-0.949-1.231-1.692-2.195-2.271-2.947c-7.25,4.548-7.85,4.402-9.208,4.069c-0.94-0.23-1.774-0.855-2.256-1.687     c-0.97-1.691-0.391-3.851,1.297-4.827c0.346-0.194,0.71-0.334,1.083-0.4c1.271-0.637,5-2.917,8.032-4.852     c0.815-0.521,1.804-0.691,2.744-0.461c0.873,0.213,1.625,0.752,2.113,1.498c0.273,0.376,1.662,2.184,3.138,4.094     c4.751-1.771,18.481-11.037,26.144-16.204c14.43-9.739,15.779-10.485,18.011-9.97c0.952,0.218,1.868,0.885,2.356,1.74     c0.203,0.352,0.346,0.691,0.437,1.013c31.483-20.618,36.844-19.503,39.176-19.018c1.589,0.333,2.877,1.231,3.633,2.541     c1.652,2.856-0.04,5.488-5.076,9.594c0.583-0.109,0.967-0.013,1.465,0.109c0.934,0.23,1.771,0.86,2.253,1.691     c1.297,2.25,0.852,4.373-2.38,7.514c0.412,0.255,0.779,0.595,1.073,1.007c0.749,1.086,0.819,2.456,0.273,3.566     c2.153-0.759,2.89-0.589,3.429-0.461c1.064,0.248,1.947,0.891,2.48,1.825c0.779,1.347,0.579,3.044-0.485,4.185l-6.156,6.543     c6.868-4.045,14.33-8.49,20.17-12.008c0.813-0.49,1.786-0.63,2.705-0.388c0.919,0.236,1.704,0.831,2.177,1.649     c1.013,1.765,0.443,3.172-0.609,4.33c0.455,0.315,0.833,0.728,1.116,1.219c0.807,1.395,0.67,2.735-0.17,4.434     c2.553-1.68,5.297-3.584,7.784-5.392c1.346-0.977,3.19-0.879,4.433,0.23c1.237,1.11,1.534,2.941,0.707,4.385l-1.722,3.014     c3.684-2.237,7.917-4.894,11.78-7.386c0.81-0.534,1.801-0.691,2.744-0.474c0.943,0.23,1.747,0.831,2.232,1.674     c1.479,2.56,0.051,4.519-4.924,9.357c0.173,0.527,0.215,1.092,0.127,1.655c-0.158,0.965-0.322,1.989-0.477,2.99     c0.691-0.431,1.365-0.85,1.968-1.226c8.284-5.148,8.778-5.458,10.591-5.003c0.931,0.236,1.744,0.85,2.226,1.68     c0.974,1.692,0.388,3.857-1.304,4.821c-0.313,0.183-0.634,0.31-0.97,0.389c-1.143,0.594-4.391,2.607-6.813,4.111     C227.658,488.387,225.938,489.454,224.541,489.454z M237.467,478.351c0.279,0.467,0.628,0.837,1.016,1.104     C238.08,479.169,237.731,478.806,237.467,478.351z M81.203,475.033c0.228,0.219,0.428,0.467,0.595,0.752     C81.625,475.494,81.425,475.252,81.203,475.033z" style="fill:#07938A;"/></g><g><path d="M282.543,447.119c-0.558,0-1.055-0.055-1.504-0.158c-1.527-0.346-2.771-1.225-3.499-2.486     c-1.952-3.378,0.346-5.47,12.936-14.676c2.384-1.746,5.124-3.705,8.193-5.882c-0.461-0.255-0.867-0.606-1.195-1.067     c-1.115-1.577-0.752-3.754,0.807-4.895c10.152-7.374,22.984-16.713,33.336-24.27c-0.425-1.024-0.503-2.443,1.268-5.075     c-4.287,2.68-5.282,2.868-6.726,2.528c-0.952-0.225-1.85-0.885-2.335-1.729c-1.546-2.668-0.2-4.348,5.853-9.436     c-0.631-0.304-1.17-0.776-1.547-1.426c-0.654-1.146-1.182-2.05,0.521-4.729c-3.068,1.534-4.336,1.619-5.512,1.34     c-1.062-0.255-1.935-0.897-2.469-1.825c-1.322-2.28-0.17-3.979,2.305-6.113c-0.473-0.703-0.661-1.534-0.576-2.347     c-1.249,0.4-1.759,0.279-2.268,0.157c-0.935-0.23-1.832-0.891-2.311-1.722c-1.02-1.765-2.195-3.803,6.998-12.505     c-0.534-0.315-0.982-0.771-1.304-1.322c-0.734-1.273-0.606-2.868,0.333-4.008l2.377-2.899c-3.262,1.989-4.427,2.286-5.833,1.959     c-0.952-0.219-1.856-0.892-2.354-1.734c-1.043-1.819-0.703-3.657,1.171-6.38c-5.046,3.238-6.223,3.627-7.829,3.251     c-0.952-0.225-1.838-0.88-2.329-1.723c-0.861-1.504-0.516-3.408,0.831-4.512c1.583-1.28,3.184-2.596,4.772-3.918     c-2.48,0.903-3.402,0.704-3.966,0.582c-1.165-0.255-2.116-0.945-2.692-1.94c-0.377-0.661-0.559-1.268-0.553-1.867     c-0.824-0.268-1.516-0.837-1.946-1.583c-1.71-2.954,0.686-5.355,4.973-8.957c-0.813-0.17-1.57-0.631-2.104-1.358     c-1.092-1.468-0.885-3.518,0.485-4.742l1.474-1.316l-3.153,1.825c-1.625,0.928-3.699,0.437-4.724-1.134     c-1.025-1.564-0.644-3.669,0.867-4.772c1.473-1.086,2.953-2.171,4.438-3.269c-8.678,5.354-10.315,5.742-12.099,5.313     c-1.019-0.243-1.861-0.868-2.377-1.759c-0.867-1.511-0.51-3.408,0.813-4.494c-11.358,5.821-13.711,5.282-15.258,4.937     c-1.322-0.297-2.396-1.073-3.038-2.178c-0.497-0.86-0.982-2.279-0.449-4.136c0.043-0.157,0.098-0.315,0.158-0.484     c-0.261-0.225-0.491-0.491-0.673-0.801c-1.025-1.655-0.51-3.827,1.146-4.852c0.104-0.066,6.695-4.166,16.022-9.873     c25.609-15.955,50.262-32.174,63.603-42.162c-17.999,9.5-51.734,30.337-83.712,51.247c-3.427,2.25-5.452,3.571-5.519,3.626     c-1.632,1.067-3.821,0.619-4.888-1.013c-1.074-1.631-0.625-3.82,1.006-4.894c0.043-0.03,0.807-0.528,2.172-1.419     c7.574-4.979,15.821-10.395,24.227-15.932c-10.267,6.138-20.213,12.117-28.927,17.381c-1.641,0.994-3.769,0.491-4.803-1.116     c-1.031-1.613-0.597-3.748,0.989-4.827l0.391-0.267c-1.904,0.267-2.941,0.042-3.726-0.128c-2.18-0.473-3.311-1.734-3.875-2.71     c-0.63-1.092-0.785-2.414-0.431-3.718c0.349-1.268,1.347-2.705,3.039-4.373c-1.134-0.012-2.247-0.558-2.923-1.564     c-1.061-1.582-0.673-3.729,0.876-4.845c0.127-0.091,7.074-5.07,17.462-12.266c-0.764,0.488-1.504,0.958-2.214,1.407     c-20.437,13.005-20.439,13.011-22.22,12.574c-0.939-0.225-1.746-0.831-2.226-1.668c-0.53-0.915-1.04-2.401-0.57-4.391     c-1.085,0.528-2.047,1.001-2.877,1.407c-1.707,0.831-3.772,0.164-4.664-1.522c-0.127-0.242-0.218-0.479-0.288-0.73     c-1.94,0.567-3.366,0.707-4.36,0.464c-1.188-0.291-2.165-1.01-2.75-2.022c-0.977-1.691-0.394-3.848,1.292-4.824     c1.055-0.609,2.29-0.612,3.308-0.121c8.533-1.522,56.223-31.729,84.974-49.937c45.78-28.997,47.951-29.864,50.698-29.188     c0.934,0.23,1.85,0.907,2.328,1.737c0.57,0.992,1.116,2.565,0.68,4.664c0.395,0.288,0.728,0.658,0.977,1.089     c0.473,0.822,0.594,1.822,0.346,2.741c-0.382,1.334-0.485,1.713-7.738,5.779c0.788-0.1,1.438-0.084,1.946,0.043     c1.201,0.294,2.184,1.013,2.766,2.025c1.049,1.816,0.51,3.362-0.867,4.9c2.159,0.482,3.281,1.737,3.845,2.71     c0.649,1.122,0.801,2.478,0.437,3.815c-0.272,1-0.922,2.095-1.959,3.311c1.347-0.267,2.76,0.258,3.591,1.44     c1.109,1.589,0.733,3.769-0.837,4.896c-0.121,0.088-6.393,4.563-15.926,11.171c14.318-7.932,15.38-7.659,16.665-7.326     c0.922,0.233,1.777,0.879,2.25,1.698c1.716,2.975-0.23,4.336-5.445,7.972c-0.128,0.088-0.261,0.182-0.4,0.279     c0.716-0.034,1.17,0.076,1.57,0.167c1.201,0.288,2.195,1.01,2.784,2.029c2.031,3.52-0.698,7.162-12.135,15.782     c0.539,0.321,0.982,0.773,1.31,1.328c0.346,0.606,0.527,1.289,0.533,1.983c0.855-0.576,1.704-1.152,2.541-1.731     c0.813-0.555,1.819-0.746,2.777-0.528c0.958,0.212,1.783,0.825,2.28,1.674c1.711,2.959-1.121,4.9-2.813,6.058     c-1.201,0.819-2.947,1.965-5.112,3.356c-0.079,0.046-0.146,0.091-0.225,0.143c0.158,0.151,0.291,0.321,0.419,0.507     c1.067,1.619,0.637,3.799-0.977,4.885l-9.072,6.106c0.212,0.213,0.388,0.455,0.54,0.722c1.249,2.153,2.037,3.529-11.747,14.591     c0.327,0.219,0.618,0.504,0.867,0.837c1.062,1.468,0.837,3.506-0.516,4.706l-1.024,0.916c1.977-0.855,2.51-0.716,3.146-0.564     c0.922,0.237,1.753,0.861,2.22,1.687c1.753,3.032-0.837,5.16-5.143,8.684c-1.982,1.625-4.451,3.572-7.149,5.67     c0.467,0.304,0.861,0.71,1.146,1.201c0.261,0.442,0.406,0.861,0.479,1.262c1.995-1.358,3.979-2.735,5.877-4.088     c0.818-0.576,1.831-0.788,2.801-0.57c0.971,0.207,1.808,0.825,2.305,1.687c1.074,1.85,1.947,3.359-7.465,12.208     c0.697,0.327,1.285,0.849,1.674,1.521c1.194,2.08,0.679,3.342-2.523,6.835c2.863-1.662,4.143-1.965,5.501-1.649     c1.007,0.23,1.88,0.879,2.396,1.765c0.728,1.273,0.601,2.868-0.334,4.002l-4.008,4.895c3.214-2.014,6.615-4.19,9.781-6.271     c1.595-1.043,3.729-0.644,4.827,0.915c1.098,1.553,0.765,3.699-0.746,4.852c-4.202,3.178-8.587,6.622-12.668,9.952     c1.31-0.819,2.607-1.649,3.881-2.469c1.553-1,3.608-0.631,4.725,0.837c0.637,0.85,0.837,1.88,0.643,2.839     c0.479-0.019,0.782,0.048,1.056,0.108c1.049,0.249,1.916,0.886,2.443,1.795c0.916,1.583,0.473,3.597-1.013,4.651     c-0.582,0.413-1.177,0.831-1.771,1.256c0.151,0.157,0.272,0.346,0.382,0.527c0.807,1.401,0.563,3.16-0.588,4.294     c-1.177,1.152-2.39,2.358-3.591,3.565l9.2-5.313c0.813-0.473,1.776-0.594,2.681-0.346c0.903,0.236,1.68,0.831,2.146,1.644     c1.062,1.838,0.455,3.159-0.843,4.47c0.582-0.061,1.091-0.019,1.564,0.091c1.116,0.261,2.031,0.934,2.583,1.892     c0.892,1.547,0.491,3.518-0.928,4.591c-3.875,2.93-7.944,6.144-11.68,9.236c0.164,0.019,0.333,0.049,0.503,0.085     c0.922,0.236,1.717,0.837,2.195,1.662c0.37,0.648,0.546,1.23,0.552,1.771c3.566-1.407,4.713-1.146,5.652-0.935     c1.194,0.279,2.171,0.989,2.76,2.002c0.934,1.613,0.448,3.681-1.116,4.712c-21.377,14.136-52.724,35.307-69.043,47.224     c5.549-2.771,13.651-7.296,25.44-14.658c17.896-11.17,37.168-24.373,48.679-32.263c10.824-7.404,10.824-7.392,12.492-7.022     c0.952,0.213,1.783,0.831,2.274,1.687c1.4,2.413,0.867,4.899-2.414,8.326c4.391-2.76,8.787-5.543,13.111-8.296     c0.818-0.516,1.801-0.68,2.741-0.455c0.934,0.23,1.734,0.837,2.22,1.668c1.637,2.844,0.272,5.482-5.403,10.061     c6.373-3.778,12.577-7.472,17.944-10.686c1.54-0.909,3.518-0.533,4.608,0.879c1.092,1.414,0.952,3.421-0.315,4.676     c-0.261,0.255-0.521,0.516-0.794,0.776c1.292-0.37,2.396-0.491,3.251-0.321c0.86,0.17,1.619,0.546,2.225,1.098     c1.122,0.273,3.657,0.576,5.24,0.771c2.371,0.285,4.069,0.491,5.313,0.813c0.703-0.461,1.625-1.11,2.207-1.528     c2.76-1.971,3.905-2.783,5.707-2.39c0.97,0.213,1.855,0.85,2.353,1.71c0.977,1.692,0.4,3.857-1.292,4.834     c-0.284,0.157-0.594,0.285-0.891,0.357c-0.468,0.31-1.231,0.85-1.777,1.243c-3.189,2.274-4.954,3.518-7.022,3.081     c-0.437-0.098-0.849-0.279-1.219-0.516c-0.873-0.182-2.856-0.431-4.228-0.588c-4.214-0.516-6.749-0.825-8.302-1.795     c-3.772,1.091-15.392,8.908-24.664,16.119c-0.806,0.624-1.855,0.867-2.856,0.679c-0.994-0.2-1.867-0.825-2.371-1.71     c-1.358-2.354,0.315-4.045,1.528-5.282c0.521-0.534,1.226-1.231,2.056-2.062c-1.922,1.128-3.881,2.286-5.821,3.432     c-32.135,18.891-32.578,18.77-34.476,18.278c-0.916-0.236-1.723-0.854-2.195-1.668c-0.867-1.504-0.874-2.978,0.127-4.699     c-27.859,16.531-30.067,15.997-31.874,15.555c-1.05-0.261-1.923-0.903-2.45-1.813c-0.121-0.212-0.23-0.424-0.315-0.631     C297.146,442.904,287.57,447.119,282.543,447.119z M314.727,279.391c-9.854,5.397-20.291,11.341-26.658,15.81     c4.13-2.013,9.545-5.003,15.821-8.69c1.771-1.188,3.791-2.534,6.107-4.045C311.501,281.477,313.09,280.446,314.727,279.391z      M332.411,231.682c-6.556,3.784-14.046,8.029-22.535,12.805c-18.594,10.458-42.96,24.176-51.563,31.113     c5.97-1.862,20.143-8.363,53.29-29.767L332.411,231.682z M348.979,210.357c-0.146,0.1-0.297,0.2-0.448,0.3     c-9.218,6.261-22.19,14.772-38.563,25.297c-1.571,1.007-3.142,2.02-4.706,3.023c0.382-0.215,0.758-0.431,1.146-0.646     c19.734-11.104,45.732-25.737,54.046-32.839C358.196,206.148,354.625,207.531,348.979,210.357z" style="fill:#07938A;"/></g><g><path d="M217.615,152.818c-0.818,0-1.376-0.118-1.837-0.219c-1.613-0.346-2.92-1.261-3.681-2.577     c-0.591-1.021-0.646-1.938-0.376-2.774c-5.306,2.614-6.228,2.383-7.138,2.153c-0.992-0.249-1.813-0.867-2.316-1.741     c-0.837-1.443-0.546-3.274,0.694-4.39l7.586-6.834c-0.573-0.31-1.052-0.773-1.383-1.344c-0.416-0.718-0.652-1.122-0.479-2.059     c-0.897-0.255-1.75-0.903-2.21-1.704c-0.977-1.692-0.394-3.851,1.292-4.827c0.413-0.233,0.846-0.382,1.286-0.443     c0.488-0.315,1.198-0.833,1.671-1.179c2.147-1.571,3.326-2.432,5.115-2.053c0.979,0.206,1.877,0.852,2.377,1.722     c0.179,0.306,0.306,0.637,0.385,0.976c12.384-7.417,12.396-7.414,14.13-6.959c0.919,0.237,1.71,0.837,2.184,1.659     c0.834,1.443,0.546,3.275-0.691,4.388l-5.64,5.085c9.121-5.394,21.726-13.02,39.146-23.793c1.194-0.74,2.056-1.271,2.711-1.646     c0.121-0.085,0.188-0.13,0.199-0.133l0.007,0.015c1.516-0.855,1.819-0.782,2.832-0.537c1.353,0.331,2.383,1.429,2.632,2.802     c0.248,1.368-0.328,2.756-1.479,3.545c-13.272,9.094-32.005,22.102-44.279,30.925c17.496-9.042,48.481-29.385,76.541-49.64     c1.583-1.143,3.79-0.785,4.937,0.794c1.135,1.586,0.782,3.793-0.801,4.934c-0.199,0.143-20.303,14.639-41.668,28.621     C232.373,149.774,221.733,152.818,217.615,152.818z" style="fill:#07938A;"/></g><g><path d="M150.847,443.401c-0.288,0-0.576-0.036-0.892-0.103c-0.97-0.219-1.847-0.855-2.341-1.717     c-0.94-1.625-1.371-3.208,1.586-6.968l-4.569,2.644c-1.589,0.91-3.6,0.468-4.655-1.024c-1.052-1.492-0.794-3.542,0.594-4.724     l8.048-6.854c-0.461,0.019-0.874-0.018-1.271-0.109c-1.08-0.254-1.977-0.915-2.517-1.855c-0.488-0.843-0.643-1.564-0.527-2.243     c-0.743,0.212-1.131,0.115-1.707-0.03c-0.919-0.237-1.719-0.837-2.192-1.662c-1.349-2.341-0.464-3.96,3.514-7.247     c-0.516-0.315-0.949-0.746-1.252-1.268c-0.995-1.722-0.579-3.195,0.74-4.742c-0.549-0.339-1.007-0.8-1.337-1.37     c-0.676-1.177-0.606-2.602,0.097-3.693c-0.361,0-0.704-0.036-1.04-0.104c-1.192-0.267-2.171-0.97-2.769-2.001     c-0.964-1.68-0.992-3.184,1.225-5.785c-0.37-0.261-0.694-0.589-0.952-0.988c-1.013-1.602-0.591-3.712,0.958-4.791     c3.809-2.669,7.711-5.44,11.468-8.157c-0.403-0.291-0.752-0.667-1.003-1.104c-1.119-1.94-0.67-3.172,1.498-5.33     c-0.364,0.024-0.73-0.006-1.082-0.104c-0.925-0.236-1.713-0.831-2.189-1.655c-0.461-0.795-0.907-2.11-0.434-3.857     c0.179-0.667,0.567-1.419,1.137-2.243c-0.907-0.249-1.768-0.892-2.241-1.711c-0.555-0.951-0.609-2.067-0.24-3.025l-4.018,2.322     c-1.692,0.977-3.848,0.389-4.824-1.292c-1.734-3.008,1.24-4.936,2.511-5.767c0.949-0.619,2.356-1.486,4.13-2.565     c0.652-0.4,1.358-0.818,2.113-1.273c-0.243-0.243-0.449-0.51-0.622-0.807c-0.331-0.57-0.655-1.401-0.667-2.456     c-10.874,6.246-11.025,6.204-12.393,5.84c-0.907-0.242-1.68-0.831-2.15-1.649c-0.452-0.782-0.895-2.08-0.431-3.809     c0.167-0.612,0.491-1.292,0.989-2.044c-0.661-0.297-1.216-0.8-1.583-1.443c-0.124-0.218-0.252-0.46-0.358-0.745     c-1.686,0.352-3.063,0.388-4.157,0.146c-1.522-0.352-2.763-1.237-3.487-2.499c-0.124-0.218-0.221-0.431-0.294-0.654     c-3.915,1.759-6.362,2.316-7.92,1.94c-1.177-0.279-2.141-0.995-2.723-1.995c-1.092-1.898-1.025-3.608,1.895-6.604l-2.344,1.353     c-0.813,0.467-1.777,0.595-2.681,0.352c-0.903-0.242-1.677-0.837-2.146-1.644c-1.413-2.456-1.01-4.967,4.43-9.921     c-0.282-0.006-0.57-0.049-0.846-0.121c-0.606-0.164-1.158-0.485-1.592-0.922c-1.252,0.03-2.384-0.073-3.384-0.298     c-3.147-0.722-4.76-2.51-5.555-3.899c-0.652-1.128-1.265-3.014-0.495-5.579c0.285-0.958,0.694-2.298,2.265-4.445     c0.106-1.073,0.688-2.08,1.677-2.68c0.045-0.03,0.473-0.291,1.255-0.759c-0.903-0.315-1.646-0.934-2.122-1.752     c-0.179-0.31-0.307-0.631-0.385-0.971c-0.716,0.109-1.274,0.097-1.719-0.019c-1.055-0.267-1.923-0.909-2.453-1.825     c-0.664-1.158-0.813-2.541-0.416-3.911c0.215-0.728,0.643-1.51,1.301-2.371c-6.98,3.99-8.987,4.427-10.482,4.075     c-1.028-0.249-1.877-0.88-2.396-1.777c-0.595-1.024-0.74-2.262-0.41-3.475c0.576-2.122,3.618-5.233,9.345-9.539     c-0.164-0.14-0.321-0.285-0.47-0.437c-3.211,1.115-5.579,1.474-7.202,1.092c-1.456-0.34-2.638-1.183-3.335-2.39     c-0.473-0.825-0.931-2.189-0.415-4.003c0.251-0.867,0.6-2.092,2.732-4.427c-0.421-0.879-0.498-1.874-0.222-2.832     c0.455-1.57,2.177-3.39,7.369-6.749l-8.405,4.851c-0.813,0.468-1.774,0.589-2.681,0.353c-0.903-0.237-1.677-0.831-2.144-1.644     c-0.728-1.262-1.41-3.372-0.537-6.271c0.673-2.25,1.986-6.602,14.627-16.972c-0.352-0.315-0.652-0.682-0.892-1.098     c-0.297-0.515-0.458-1.091-0.47-1.67l-5.57,3.214c-1.674,0.964-3.808,0.413-4.797-1.246c-0.992-1.653-0.473-3.796,1.167-4.815     l38.163-23.7l-31.774,18.342c-1.655,0.955-3.778,0.418-4.778-1.216c-1.001-1.634-0.516-3.769,1.098-4.812l0.928-0.598     c-0.003-0.006-0.006-0.006-0.016-0.006c-1.219-0.294-2.216-1.031-2.816-2.065c-0.588-1.022-0.731-2.25-0.397-3.463     c0.243-0.892,0.558-2.05,3.038-4.491c-0.176-0.173-0.333-0.37-0.476-0.585c-1.025-1.571-0.643-3.669,0.867-4.779l13.005-9.533     c-0.967,0.179-1.777,0.179-2.471,0.018c-1.216-0.279-2.22-1.007-2.82-2.05c-0.503-0.873-0.749-1.743-0.704-2.665     c-3.26,1.776-3.878,1.628-4.949,1.367c-0.937-0.228-1.81-0.879-2.295-1.713c-1.261-2.184-2.978-5.158,14.928-17.741     c0.054-0.531,0.221-1.046,0.506-1.507c-3.979,2.556-5.31,2.954-6.886,2.599c-1.016-0.23-1.895-0.876-2.411-1.768     c-1-1.735-0.715-2.426,1.995-9.051c0.315-0.77,0.707-1.729,1.089-2.674c-0.091-0.118-0.173-0.24-0.249-0.367     c-0.973-1.692-0.394-3.854,1.295-4.828c0.206-0.118,0.418-0.215,0.637-0.288c0.737-0.658,1.919-1.625,3.639-1.359     c1.052,0.17,2.041,0.846,2.577,1.771c0.879,1.525,0.713,2.568-1.085,7.071c0.846-0.576,1.683-1.149,2.456-1.686     c11.962-8.217,15.346-10.197,18.154-9.567c1.104,0.252,2.017,0.916,2.574,1.877c0.789,1.365,0.576,3.087-0.521,4.218     l-0.682,0.713c3.083-1.865,6.413-3.854,9.997-5.955c1.634-0.958,3.733-0.464,4.761,1.134c0.164,0.258,0.294,0.531,0.388,0.815     c9.821-5.77,13.587-7.131,15.834-6.583c1.091,0.267,1.992,0.934,2.538,1.88c0.545,0.94,0.785,1.792,0.591,2.674     c0.943-0.233,1.659-0.221,2.323-0.073c1.085,0.251,1.98,0.907,2.526,1.853c0.9,1.559,0.482,3.551-0.967,4.615l-19.455,14.263     l12.684-7.323c17.784-10.455,32.075-18.518,32.263-18.626c1.698-0.955,3.842-0.361,4.803,1.328     c0.47,0.818,0.573,1.75,0.364,2.599c5.646-3.269,6.367-3.096,7.638-2.784c0.94,0.227,1.829,0.885,2.311,1.719     c0.731,1.265,0.588,2.802-0.246,3.905L306.807,99.5c1.674-0.964,3.803-0.409,4.797,1.247c0.989,1.652,0.468,3.799-1.164,4.815     l-38.163,23.706l45.301-26.156c1.687-0.976,3.845-0.4,4.821,1.292c0.066,0.103,0.127,0.218,0.182,0.34     c1.341-0.279,2.414-0.315,3.215-0.122c1.273,0.313,2.328,1.074,2.941,2.15c0.563,0.97,0.703,2.125,0.388,3.263     c-0.412,1.501-2.311,3.599-6.053,6.534c0,0.012,0.007,0.024,0.013,0.037c0.939,1.607,0.473,3.669-1.073,4.709     c-0.213,0.139-8.703,5.858-22.227,14.812l32.651-18.854c1.686-0.977,3.856-0.397,4.82,1.294c0.729,1.237,1.401,3.305,0.589,6.116     c-0.328,1.128-0.916,2.341-1.765,3.639c1.406-0.158,2.625-0.122,3.632,0.115c2.329,0.542,3.536,1.898,4.143,2.944     c0.485,0.843,0.958,2.234,0.425,4.066c-0.474,1.671-2.044,3.706-4.73,6.152c-0.013,0.3-0.067,0.594-0.152,0.895     c-0.363,1.334-1.728,3.053-4.378,5.343c1.837,0.606,2.832,1.755,3.354,2.656c0.419,0.728,0.825,1.722,0.946,2.971     c11.516-5.694,13.475-5.203,14.973-4.83c1.177,0.297,2.141,1.01,2.717,2.007c0.546,0.946,1.067,2.52,0.442,4.642     c-0.133,0.464-0.297,1.019-0.643,1.719c0.485,1.422,0.006,3.023-1.207,3.945c0.952,0.291,1.747,0.91,2.238,1.756     c0.485,0.843,0.601,1.85,0.321,2.78c-0.036,0.131-0.085,0.258-0.14,0.382c1.086,0.288,1.978,0.961,2.522,1.907     c0.644,1.098,1.237,2.914,0.51,5.306c-0.752,2.48-3.099,5.337-6.938,8.597c0.236,2.204-2.135,3.669-5.016,5.437     c-2.092,1.286-5.215,3.138-9.527,5.67c-8.168,4.776-19.915,11.547-33.535,19.388c-22.627,13.036-50.744,29.23-78.588,45.599     c-8.345,5.552-16.401,10.858-24.133,15.867l25.458-14.694c1.683-0.973,3.83-0.403,4.815,1.271     c0.979,1.671,0.431,3.823-1.234,4.818c-1.176,0.71-2.377,1.425-3.593,2.153c2.396-0.935,3.869-1.11,4.991-0.844     c1.113,0.268,2.029,0.946,2.581,1.904c0.946,1.632,0.439,3.724-1.149,4.742l-3.672,2.354c0.785,0.303,1.504,0.897,1.917,1.607     c0.482,0.836,0.604,1.837,0.331,2.759c-0.273,0.928-0.916,1.71-1.777,2.146c-0.625,0.321-1.247,0.644-1.874,0.971     c1.243,0.315,2.253,1.062,2.862,2.11c0.467,0.818,0.594,1.783,0.349,2.692c-0.391,1.449-0.418,1.553-9.206,6.562     c0.443-0.055,0.889-0.024,1.328,0.091c0.907,0.237,1.68,0.831,2.146,1.644c0.473,0.819,0.601,1.826,0.355,2.735     c-0.291,1.067-0.421,1.534-3.266,3.312c0.807,0.278,1.486,0.836,1.917,1.576c2.18,3.784-2.295,7.083-6.623,10.273     c-0.084,0.066-0.173,0.127-0.257,0.188c0.494,1.219,0.367,2.444-0.349,3.784c0.864,0.23,1.646,0.782,2.135,1.607     c0.982,1.661,0.458,3.796-1.183,4.815c-0.164,0.097-16.601,10.242-33.199,20.151c-1.565,0.94-3.06,1.831-4.494,2.687     c-0.5,0.321-0.995,0.648-1.489,0.965c0.227,0.018,0.416,0.066,0.625,0.121c0.922,0.23,1.737,0.843,2.213,1.674     c0.858,1.485,0.525,3.377-0.792,4.475c-1.389,1.165-2.799,2.342-4.206,3.523c0.864,0.37,1.577,0.995,2.05,1.813     c1.901,3.299-1.416,6.017-6.007,9.776c-0.998,0.818-2.134,1.716-3.399,2.71c0.003,0.013,0.009,0.019,0.015,0.03     c1.019,1.59,0.604,3.699-0.94,4.791c-0.258,0.183-0.516,0.358-0.776,0.546c0.761,0.315,1.407,0.867,1.819,1.583     c0.598,1.031,1.195,2.074-0.058,4.294c1.392-0.929,2.771-1.85,4.118-2.766c0.813-0.552,1.819-0.746,2.771-0.521     c0.958,0.225,1.783,0.831,2.271,1.68c0.503,0.867,0.646,1.668,0.498,2.438c0.424-0.054,0.855-0.024,1.273,0.079     c0.918,0.242,1.701,0.843,2.177,1.655c1.637,2.839-0.328,4.294-4.233,7.192c-1.464,1.086-3.335,2.444-5.449,3.99     c0.385,0.285,0.709,0.655,0.952,1.067c0.346,0.601,0.558,1.122,0.613,1.626c2.571-1.449,3.487-1.534,4.657-1.262     c0.949,0.225,1.853,0.892,2.341,1.734c0.855,1.474,0.531,3.348-0.764,4.457l-8.302,7.071l0.012-0.006     c0.81-0.467,1.774-0.601,2.684-0.352c0.907,0.242,1.677,0.837,2.144,1.649c1.501,2.619-0.521,4.263-2.15,5.585     c-1.468,1.194-2.844,2.329-4.136,3.402c0.728-0.115,1.365-0.104,1.968,0.03c1.191,0.249,2.177,0.964,2.771,1.995     c0.974,1.692,0.397,3.845-1.294,4.821c-0.919,0.54-1.983,0.612-2.914,0.285c-2.935,1.092-10.982,6.811-14.558,9.345     C153.754,442.364,152.29,443.401,150.847,443.401z M191.46,320.962c-9.2,5.361-19.167,11.353-26.774,16.477     c9.682-5.513,22.784-13.456,36.507-22.08c-1.968,1.122-4.045,2.316-6.192,3.554C193.834,319.585,192.651,320.271,191.46,320.962z      M104.615,315.729c0.119,0.121,0.367,0.285,0.907,0.406c0.167,0.036,0.346,0.066,0.534,0.091c0.03-0.115,0.064-0.23,0.1-0.346     c0.561-1.837,1.75-3.82,3.532-5.949l-2.244,1.358C105.182,313.781,104.679,315.098,104.615,315.729z M218.261,254.154     c-44.455,22.029-89.756,45.522-102.218,59.015L218.261,254.154z M92.444,276.098c-0.285,0.255-0.552,0.504-0.797,0.734     c0.124-0.049,0.254-0.104,0.382-0.158C92.152,276.492,92.292,276.298,92.444,276.098z M153.193,259.324     c-2.659,1.795-5.23,3.511-7.723,5.143c12.589-6.75,27.844-14.719,46.05-24.17c3.293-1.71,6.649-3.454,10.061-5.225     c55.353-37.393,102.648-67.842,129.896-78.64c0.328-0.579,0.57-1.131,0.722-1.649c0.013-0.061,0.055-0.2,0.079-0.346     c-1.219-0.112-3.996,0.261-10.395,2.871c-17.332,11.329-49.236,29.755-103.23,60.383c-3.199,1.813-6.443,3.657-9.724,5.515     c-17.332,11.119-34.47,22.271-49.868,32.296C157.044,256.816,155.092,258.09,153.193,259.324z M95.2,251.798     c-2.957,2.535-5.088,4.594-6.623,6.265l9.54-5.507c-0.61-0.055-1.071-0.164-1.471-0.254     C96.101,252.174,95.622,252.001,95.2,251.798z M201.139,254.69c-0.458,0.273-0.928,0.552-1.389,0.828     c13.09-6.583,27.326-13.603,42.551-21.074c8.939-4.387,17.726-8.699,26.222-12.902c3.39-2.313,6.744-4.603,10.062-6.862     c19.133-13.06,33.663-22.926,44.748-30.246c-0.945,0.479-1.892,0.971-2.868,1.471c-19.006,12.217-47.969,29.439-92.212,53.921     C219.146,244.869,210.044,249.851,201.139,254.69z M119.342,248.459l-7.978,4.606c1.665-0.91,3.433-1.871,5.307-2.887     C117.541,249.618,118.43,249.044,119.342,248.459z M109.245,241.346c-1.625,1.04-3.084,2.001-4.36,2.872     c11.016-3.693,38.906-17.044,109.417-61.292c5.604-3.515,11.176-7.041,16.68-10.537c-7.526,4.282-15.68,8.866-24.506,13.76     c-15.567,8.645-31.138,17.104-45.453,24.791C136.98,226.04,120.17,236.049,109.245,241.346z M171.999,236.04     c-0.361,0.24-0.715,0.473-1.073,0.707c1.191-0.682,2.401-1.371,3.62-2.071C173.694,235.13,172.845,235.588,171.999,236.04z      M155.422,179.711c-22.52,13.314-42.811,25.955-54.852,34.424c16.271-8.975,42.878-26.037,60.877-37.581     c1.801-1.152,3.508-2.244,5.133-3.287L155.422,179.711z M350.265,175.83c-6.616,3.732-17.181,10.564-29.57,18.836     C337.62,185.302,346.074,179.426,350.265,175.83z M269.184,175.987c-0.625,0.434-1.255,0.876-1.886,1.313     c10.127-5.497,19.697-10.785,28.314-15.694c15.615-8.891,25.452-15.058,31.632-19.327c-3.021,0.658-6.841,2.162-11.311,4.354     C304.15,155.123,288.178,165.02,269.184,175.987z M334.527,163.834c-1.201,1.343-2.62,2.75-4.251,4.218l14.032-8.499     c-0.921,0.173-1.922,0.406-2.983,0.707C339.275,161.299,336.995,162.497,334.527,163.834z M327.074,128.524l-50.195,28.979     c5.064-2.774,9.861-5.397,14.337-7.835c12.741-7.666,23.251-13.427,31.407-17.038C324.479,131.05,325.94,129.688,327.074,128.524     z M334.752,135.577c0.261,0.1,0.509,0.209,0.752,0.331c0.23-0.218,0.442-0.418,0.624-0.609     C335.734,135.356,335.279,135.447,334.752,135.577z" style="fill:#07938A;"/></g></g></g><g id="Layer_1"/></svg>