<?xml version="1.0" ?><!DOCTYPE svg  PUBLIC '-//W3C//DTD SVG 1.1//EN'  'http://www.w3.org/Graphics/SVG/1.1/DTD/svg11.dtd'><svg enable-background="new 0 0 130 130" height="130px" id="icon" version="1.1" viewBox="0 0 130 130" width="130px" xml:space="preserve" xmlns="http://www.w3.org/2000/svg" xmlns:xlink="http://www.w3.org/1999/xlink"><g><g><path d="M97.576,24.984H34.423    C20.641,34.482,11.649,50.02,11.649,67.591c0,23.223,15.699,42.903,37.427,49.757h33.848    c21.728-6.856,37.428-26.537,37.428-49.757C120.349,50.02,111.357,34.482,97.576,24.984z" fill="none" stroke="#3262F9" stroke-miterlimit="10" stroke-width="2"/><g><circle cx="88.353" cy="60.05" fill="none" r="2.538" stroke="#3262F9" stroke-miterlimit="10" stroke-width="2"/><circle cx="83.277" cy="50.625" fill="none" r="2.538" stroke="#3262F9" stroke-miterlimit="10" stroke-width="2"/><circle cx="90.165" cy="46.275" fill="none" r="2.538" stroke="#3262F9" stroke-miterlimit="10" stroke-width="2"/></g></g><g><path d="M80.26,69.929c-1.42,0-2.575,1.155-2.575,2.575c0,1.421,1.155,2.577,2.575,2.577    c1.421,0,2.576-1.156,2.576-2.577C82.836,71.084,81.681,69.929,80.26,69.929z M80.26,73.126c-0.341,0-0.621-0.277-0.621-0.622    c0-0.341,0.28-0.618,0.621-0.618c0.342,0,0.622,0.277,0.622,0.618C80.879,72.846,80.602,73.126,80.26,73.126z" fill="#3262F9"/><path d="M89.958,74.278c0.289-0.476,0.42-1.031,0.36-1.586c-0.071-0.676-0.401-1.283-0.931-1.709    c-0.454-0.37-1.013-0.565-1.587-0.565c-1.723-2.44-6.35-4.881-10.563-5.499c-0.029-0.009-0.058-0.015-0.092-0.021    c-0.018-0.003-0.031-0.001-0.051-0.004c-0.988-0.166-2.025-0.287-3.09-0.364c-1.359-1.736-3.102-2.879-5.175-3.398    c-1.716-0.428-5.518-0.029-8.529,0.556c-4.293,0.835-6.771,1.863-7.363,3.06c-0.273,0.548-0.275,1.363,0.53,2.014    c0.186,0.151,0.365,0.29,0.536,0.425c0.395,0.315,0.779,0.616,1.047,0.877c-5.531,2.455-10.148,5.633-12.781,7.626    c-2.084-1.751-6.394-4.047-11.271-4.161c-0.007,0-0.015-0.002-0.022-0.002c-1.505,0-2.438,0.283-2.931,0.893    c-0.298,0.368-0.407,0.829-0.311,1.298c0.28,1.35,1.882,3.804,4.183,5.056c-2.224,1.765-2.682,4.37-2.731,5.966    c-0.018,0.601,0.219,0.977,0.421,1.182c0.303,0.313,0.72,0.469,1.238,0.469c0.427,0,0.861-0.102,1.243-0.198    c0.072-0.017,0.142-0.03,0.208-0.045c5.042-1.142,8.83-3.735,10.557-5.928c2.446,1.076,10.411,4.373,18.374,5.317    c-0.279,0.088-0.539,0.186-0.771,0.309c-1.112,0.585-1.147,1.488-1.069,1.979c0.263,1.637,2.258,2.87,4.641,2.87    c0.82,0,1.616-0.146,2.361-0.431c2.361-0.904,4.313-2.725,5.214-4.823c2.809-0.442,5.414-1.15,7.758-2.112h0.004l0,0    c0.021-0.01,0.039-0.019,0.059-0.025c1.813-0.704,3.593-1.828,3.933-2.046c0.005-0.003,0.011-0.008,0.017-0.01    c0.563-0.367,1.088-0.749,1.561-1.131c0.009-0.007,0.017-0.015,0.028-0.026c0.903-0.733,1.665-1.51,2.269-2.311    c0.211,0.03,0.425,0.036,0.639,0.014c1.391-0.147,2.405-1.399,2.261-2.798C90.108,74.795,90.066,74.537,89.958,74.278z     M60.839,63.582c3.194-0.609,6.357-0.838,7.521-0.55c1.061,0.27,2.012,0.742,2.845,1.419c-1.774,0.016-3.608,0.15-5.48,0.411    c-2.779,0.391-5.729,1.197-8.779,2.407c-0.393-0.568-1.012-1.057-1.726-1.62c-0.094-0.074-0.192-0.15-0.293-0.229    C55.582,64.97,57.465,64.224,60.839,63.582z M31.869,84.238c-0.075,0.018-0.15,0.034-0.231,0.054    c-0.148,0.034-0.315,0.077-0.469,0.104c0.141-1.782,0.89-3.949,3.49-4.94c0.422-0.161,0.679-0.589,0.622-1.036    c-0.057-0.45-0.412-0.799-0.859-0.852c-2.248-0.256-4.206-2.697-4.68-3.96c0.203-0.057,0.576-0.122,1.227-0.125    c3.918,0.097,7.742,1.912,9.728,3.444c-0.382,0.406-0.624,0.947-0.432,1.543c0.128,0.394,0.425,0.686,0.751,0.899    C39.531,81.02,36.388,83.214,31.869,84.238z M65.693,88.435c-0.521,0.199-1.08,0.302-1.661,0.302    c-1.476,0-2.511-0.639-2.688-1.148c0.269-0.156,0.986-0.327,1.478-0.443c1.025-0.247,2.301-0.553,3.413-1.243    c1.165-0.726,1.85-1.711,2.401-2.501c0.524-0.756,0.867-1.218,1.306-1.312c0.106-0.022,0.156-0.017,0.176-0.014    c0.122,0.149,0.238,0.881-0.097,1.999c-0.064,0.11-0.104,0.232-0.124,0.359C69.384,85.811,68.03,87.539,65.693,88.435z     M72.159,83.363c0.094-0.807,0.045-1.738-0.45-2.43c-0.476-0.665-1.266-0.948-2.17-0.759c-1.22,0.258-1.877,1.196-2.509,2.106    c-0.377,0.54-0.762,1.094-1.288,1.553c-0.021,0-0.04-0.003-0.063-0.003c-10.288,0.14-22.846-5.776-22.849-5.777    c-0.076-0.049-0.24-0.178-0.016-0.317l0,0c2.53-1.967,7.707-5.658,13.961-8.286c3.224-1.355,6.324-2.246,9.218-2.648    c2.582-0.362,5.089-0.479,7.445-0.346c0.507,0.028,1.007,0.068,1.499,0.119c-1.574,1.772-2.839,4.013-2.49,7.321    c0.371,3.501,1.92,6.429,4.339,8.3C75.334,82.678,73.786,83.069,72.159,83.363z M88.223,73.344    c-0.584,0.657-0.405,1.318-0.068,1.696c0.009,0.025,0.02,0.076,0.03,0.167c0.032,0.32-0.2,0.607-0.518,0.641    c-0.095,0.008-0.192-0.006-0.288-0.046c-0.553-0.225-1.144-0.044-1.453,0.439c-0.54,0.8-1.28,1.586-2.203,2.333    c-0.015,0.012-0.028,0.024-0.043,0.034c-0.413,0.334-0.876,0.669-1.372,0.997c-0.004,0-0.007,0.004-0.009,0.006    c-0.272,0.176-1.542,0.977-2.943,1.6c-0.037,0.012-0.078,0.025-0.115,0.043c-0.066,0.028-0.136,0.057-0.202,0.085    c-2.593-1.444-4.275-4.203-4.638-7.646c-0.332-3.167,1.15-5.047,2.93-6.778c4.074,0.705,8.097,3.135,9.058,4.925    c0.14,0.264,0.492,0.683,1.316,0.545l0.028-0.004c0.156-0.017,0.309,0.028,0.429,0.126c0.122,0.098,0.197,0.238,0.211,0.393    C88.396,73.114,88.289,73.271,88.223,73.344z" fill="#3262F9"/></g></g></svg>