<?xml version="1.0" ?><!DOCTYPE svg  PUBLIC '-//W3C//DTD SVG 1.1//EN'  'http://www.w3.org/Graphics/SVG/1.1/DTD/svg11.dtd'><svg enable-background="new 0 0 128 128" id="Слой_1" version="1.1" viewBox="0 0 128 128" xml:space="preserve" xmlns="http://www.w3.org/2000/svg" xmlns:xlink="http://www.w3.org/1999/xlink"><path d="M81.8,102.3c-0.6-5.5-1.4-11-2.5-16.4l-5-25.2V47.3C74.3,41.6,69.7,37,64,37s-10.3,4.6-10.3,10.3v4.9  l-2.1,19l-2.9,14.6c-1.1,5.4-1.9,10.9-2.5,16.4L44,124h40L81.8,102.3z" fill="#E3D34C"/><path d="M53.7,47.3v4.9l-2.1,19l-2.9,14.6c-1.1,5.4-1.9,10.9-2.5,16.4L44,124h6l2.2-21.7c0.6-5.5,1.4-11,2.5-16.4  l2.9-14.6l2.1-19v-4.9c0-4.7,3.1-8.6,7.3-9.9c-0.9-0.3-2-0.4-3-0.4C58.3,37,53.7,41.6,53.7,47.3z" fill="#FFFFFF"/><path d="M56.2,65.9l-28.1,27c-2,1.9-5.3,1.8-7-0.4l0,0c-1.7-2-1.4-5.1,0.6-6.8l30-25.2L56.2,65.9z" fill="#8C8687"/><path d="M106.3,14.8l-30,25.2l-4.5-5.4l28.1-27c2-1.9,5.3-1.8,7,0.4l0,0C108.6,10,108.3,13.1,106.3,14.8z" fill="#8C8687"/><path d="M79.6,58l27,28.1c1.9,2,1.8,5.3-0.4,7l0,0c-2,1.7-5.1,1.4-6.8-0.6l-25.2-30L79.6,58z" fill="#8C8687"/><path d="M28.5,8l25.2,30l-5.4,4.5l-27-28.1c-1.9-2-1.8-5.3,0.4-7l0,0C23.8,5.7,26.8,5.9,28.5,8z" fill="#8C8687"/><path d="M52.2,47.3v10.9l-1.4,1.2l-30,25.2c-2.7,2.2-3,6.2-0.8,8.9c1.2,1.4,3,2.3,4.9,2.3c1.6,0,3.2-0.6,4.4-1.8  l20.1-19.4l-2.2,11c-1.1,5.5-1.9,11-2.5,16.6l-2,20.4H24c-0.8,0-1.5,0.7-1.5,1.5s0.7,1.5,1.5,1.5h80c0.8,0,1.5-0.7,1.5-1.5  s-0.7-1.5-1.5-1.5H85.4l-2-20.4c-0.6-5.5-1.4-11.1-2.5-16.6l-3.4-17l20.9,24.9c1.2,1.4,3,2.3,4.9,2.3c1.5,0,2.9-0.5,4.1-1.5  c1.3-1.1,2.2-2.8,2.3-4.5c0.1-1.7-0.5-3.5-1.8-4.7l-27-28.1c-0.5-0.6-1.4-0.6-2-0.1l-2.9,2.4V47.3c0-1.5-0.3-3-0.8-4.4l2.2-1.9  l30-25.2c2.7-2.2,3-6.2,0.8-8.9c-1.2-1.4-3-2.3-4.9-2.3c-1.6,0-3.2,0.6-4.4,1.8l-28.1,27c-0.6,0.5-0.6,1.4-0.1,2l3.5,4.2l-0.6,0.5  c-2.2-2.9-5.6-4.8-9.5-4.8c-3,0-5.8,1.1-7.9,3L54.9,37L29.7,7c-1.2-1.4-3-2.3-4.9-2.3c-1.5,0-2.9,0.5-4.1,1.5  c-1.3,1.1-2.2,2.8-2.3,4.5c-0.1,1.7,0.5,3.5,1.8,4.7l27,28.1c0.3,0.3,0.7,0.5,1.1,0.5c0.3,0,0.7-0.1,1-0.4l4.2-3.5l0.6,0.7  C52.9,42.7,52.2,44.9,52.2,47.3z M100.9,8.7c0.6-0.6,1.4-0.9,2.3-0.9c1,0,1.9,0.4,2.6,1.2c1.2,1.4,1,3.5-0.4,4.7L76.4,37.8l-2.6-3.1  L100.9,8.7z M55.2,47.3c0-1.5,0.4-2.9,1-4.1l5.7,6.8l-6.7,5.6V47.3z M27.1,91.8c-0.6,0.6-1.4,0.9-2.3,0.9c-1,0-1.9-0.4-2.6-1.2  c-1.2-1.4-1-3.5,0.4-4.7l28.9-24.2l2.6,3.1L27.1,91.8z M77.9,86.1c1.1,5.4,1.9,10.8,2.4,16.3l2,20.1H45.7l2-20.1  c0.2-2.3,0.5-4.6,0.8-6.9H70c0.8,0,1.5-0.7,1.5-1.5s-0.7-1.5-1.5-1.5H49c0.3-2.1,0.7-4.3,1.1-6.4L53,71.6c0-0.2,0-0.3,0-0.5l4.3-4.1  c0.6-0.5,0.6-1.4,0.1-2l-3.5-4.2l10-8.4l9.3,11.1l0.3,0.3L77.9,86.1z M79.5,60l26,27c0.6,0.7,1,1.6,0.9,2.5c0,0.9-0.5,1.8-1.2,2.4  c-0.6,0.5-1.4,0.8-2.1,0.8c-1,0-1.9-0.4-2.6-1.2L76.4,62.7L79.5,60z M72.8,47.3v11.1l-6.7-8l6.4-5.4C72.7,45.8,72.8,46.5,72.8,47.3z   M64,38.5c3,0,5.6,1.5,7.2,3.7l-7,5.9l-6.1-7.3C59.6,39.4,61.7,38.5,64,38.5z M48.5,40.4l-26-27c-0.6-0.7-1-1.6-0.9-2.5  c0-0.9,0.5-1.8,1.2-2.4c0.6-0.5,1.4-0.8,2.1-0.8c1,0,1.9,0.4,2.6,1.2l24.2,28.9L48.5,40.4z" fill="#62355C"/></svg>