<?xml version="1.0" ?><!DOCTYPE svg  PUBLIC '-//W3C//DTD SVG 1.1//EN'  'http://www.w3.org/Graphics/SVG/1.1/DTD/svg11.dtd'><svg height="512px" style="enable-background:new 0 0 512 512;" version="1.1" viewBox="0 0 512 512" width="512px" xml:space="preserve" xmlns="http://www.w3.org/2000/svg" xmlns:xlink="http://www.w3.org/1999/xlink"><g id="_x36_0"><g><g><path d="M402.061,486.792c-0.328,0-0.644-0.036-0.946-0.097c-1.158-0.249-2.11-0.935-2.687-1.935     c-0.146-0.261-0.279-0.491-0.376-0.722c-0.601,0.091-1.122,0.055-1.632-0.061c-1.067-0.249-1.952-0.892-2.492-1.826     c-1.522-2.644,0.431-4.427,3.129-6.9c0.389-0.346,0.819-0.74,1.286-1.158c-0.061-0.115-0.121-0.23-0.17-0.334     c-5.167,3.584-6.828,4.434-8.745,4.015c-1.03-0.225-1.91-0.873-2.438-1.776c-1.607-2.796-0.376-5.604,7.671-12.984     c-0.818-0.455-1.431-1.225-1.686-2.135c-0.346-1.225-0.006-2.535,0.88-3.433c0.49-0.503,0.988-1.007,1.479-1.516l-12.911,7.453     c-1.522,0.886-3.469,0.497-4.555-0.886c-1.079-1.389-0.964-3.378,0.255-4.639l4.033-4.137c-0.279-0.006-0.516-0.066-0.795-0.146     c-0.922-0.236-1.716-0.837-2.183-1.661c-0.771-1.328-0.583-2.996,0.448-4.136l0.176-0.2c-0.776-0.315-1.431-0.88-1.85-1.602     c-0.17-0.285-0.303-0.558-0.406-0.824c-1.844,1.031-2.438,1.024-3.499,0.77c-0.94-0.23-1.771-0.843-2.25-1.68     c-1.043-1.807-1.104-3.038,2.39-6.998l-2.025,1.164c-1.681,0.971-3.845,0.395-4.821-1.291c-0.886-1.528-0.716-2.669,0.346-4.058     c-0.134-0.018-0.273-0.042-0.412-0.072c-0.946-0.23-1.753-0.831-2.232-1.674c-0.897-1.553-0.546-2.868,0.376-4.154     c-0.582-0.31-1.073-0.782-1.413-1.358c-1.03-1.789-0.807-3.002,1.547-5.919c-1.092,0.334-1.88,0.334-2.626,0.164     c-1.079-0.249-1.983-0.91-2.529-1.855c-0.892-1.541-0.854-2.705,0.71-4.858c-0.922-0.339-1.71-0.994-2.207-1.861     c-0.831-1.432-0.553-3.238,0.66-4.36c0.783-0.722,1.583-1.468,2.378-2.22c-2.614,1.226-3.293,1.067-4.039,0.88     c-0.94-0.219-1.808-0.867-2.286-1.704c-0.789-1.365-1.158-2.002,0.928-4.852c-2.274,0.988-2.966,0.83-3.65,0.667     c-0.94-0.225-1.856-0.897-2.342-1.74c-1.249-2.153-0.527-4.203,1.947-6.89c-0.255-0.194-0.497-0.406-0.703-0.667     c-1.092-1.37-1.025-3.323,0.163-4.608c0.158-0.17,0.321-0.346,0.485-0.521c-1.734,1.115-3.281,2.116-4.36,2.819     c-5.464,3.554-5.464,3.548-7.028,3.172c-0.94-0.225-1.759-0.831-2.238-1.668c-0.982-1.692-0.394-3.856,1.292-4.821     c0.121-0.072,0.242-0.133,0.357-0.188c0.564-0.34,2.195-1.389,3.761-2.414c17.538-11.407,19.902-12.226,22.195-11.68     c1.031,0.242,1.886,0.873,2.401,1.776c0.546,0.935,0.988,1.711,0.242,3.47l1.486-0.861c1.691-0.971,3.851-0.395,4.827,1.298     c1.019,1.752,0.77,3.129-0.934,5.069c0.915,0.23,1.697,0.813,2.183,1.638c1.286,2.188,0.315,3.329-2.311,6.288     c0.935-0.582,1.85-1.17,2.741-1.746c0.813-0.521,1.808-0.686,2.747-0.455c0.935,0.225,1.734,0.831,2.22,1.662     c0.886,1.54,1.795,3.117-3.742,9.569c0.461,0.321,0.861,0.746,1.146,1.243c0.703,1.219,0.85,2.099,0.115,3.433     c1.249-0.74,1.789-0.771,2.814-0.54c0.958,0.213,1.788,0.831,2.279,1.674c1.146,1.995,0.589,3.729-2.262,7.271     c0.297,0.006,0.57,0.042,0.867,0.115c0.995,0.236,1.855,0.873,2.365,1.752c0.206,0.364,0.346,0.71,0.431,1.037     c5.543-3.02,6.513-2.795,7.478-2.564c0.934,0.23,1.844,0.891,2.328,1.728c0.57,1.001,0.613,2.184,0.176,3.185     c1.292-0.237,2.656,0.267,3.476,1.376c1.073,1.456,0.879,3.469-0.443,4.694c-1.892,1.752-3.82,3.56-5.712,5.349     c0.278,0.006,0.552,0.055,0.83,0.121c0.935,0.225,1.838,0.897,2.311,1.734c0.704,1.188,0.691,2.135,0.219,3.057     c0.346,0.194,0.661,0.448,0.928,0.758c0.734,0.819,1.007,1.898,0.837,2.923c0.31-0.188,0.612-0.363,0.909-0.546     c1.522-0.909,3.481-0.558,4.591,0.837c1.098,1.389,1.001,3.385-0.236,4.651l-2.783,2.862l10.013-5.785     c1.691-0.97,3.851-0.395,4.826,1.298c0.831,1.443,0.88,2.554-0.637,4.73c2.414-1.231,2.905-1.098,3.852-0.849     c0.922,0.236,1.722,0.843,2.201,1.667c1.547,2.675-0.595,4.519-2.656,6.308c-1.255,1.091-3.057,2.583-5.124,4.305     c-0.389,0.322-0.819,0.674-1.273,1.062c0.399-0.018,0.776,0.024,1.146,0.098c1.141,0.254,2.08,0.934,2.65,1.922     c0.673,1.177,0.612,2.607-0.104,3.699c0.219,0.188,0.419,0.406,0.595,0.655c0.843,1.213,0.837,2.789,0.055,3.979     c0.346,0.272,0.643,0.612,0.873,1c0.601,1.043,0.618,2.28,0.115,3.317c0.455,0.304,0.837,0.703,1.116,1.177     c0.97,1.691,0.394,3.856-1.298,4.833c-0.194,0.109-0.4,0.2-0.601,0.272c-0.533,0.358-1.601,1.135-2.486,1.777     C407.572,484.87,404.498,486.792,402.061,486.792z M341.865,384.48c1.225,0,2.407,0.631,3.063,1.758     c-0.946-1.631-2.851-2.08-4.221-1.558C341.083,384.547,341.483,384.48,341.865,384.48z" style="fill:#871518;"/></g><g><path d="M293.174,414.911c-0.248,0-0.509-0.03-0.775-0.091c-0.959-0.219-1.783-0.825-2.274-1.68     c-1.432-2.469-0.886-5.173,2.141-8.666c-3.499,2.273-6.986,4.548-10.431,6.816c-1.631,1.067-3.814,0.612-4.894-1.007     c-1.067-1.632-0.619-3.827,1.013-4.894c15.53-10.249,36.186-23.9,56.308-37.199c-2.117,1.225-4.239,2.443-6.344,3.663     c-4.294,2.474-8.678,4.997-13.021,7.514c-16.301,10-32.371,20.03-45.968,28.63c-0.813,0.516-1.789,0.667-2.729,0.442     c-0.94-0.23-1.741-0.831-2.214-1.668c-0.539-0.922-0.661-1.776-0.485-2.583c-1.673,1.062-3.316,2.098-4.927,3.123     c-0.815,0.516-1.798,0.686-2.738,0.449c-0.934-0.225-1.734-0.831-2.213-1.662c-0.516-0.892-1.013-2.365-0.455-4.33     c0.012-0.03,0.018-0.061,0.027-0.097c-0.276,0.182-0.549,0.352-0.822,0.527c-7.653,5.446-12.283,8.812-12.414,8.908     c-0.813,0.595-1.834,0.813-2.814,0.601c-0.982-0.206-1.828-0.818-2.326-1.691c-0.995-1.711-0.752-3.051,0.722-4.604     c-0.312-0.272-0.576-0.594-0.789-0.952c-0.3-0.527-0.591-1.194-0.764-2.001l-1.059,0.606c-0.813,0.467-1.776,0.595-2.68,0.352     c-0.904-0.242-1.677-0.837-2.147-1.644c-0.091-0.163-0.173-0.321-0.236-0.491c-1.504,0.413-2.577,0.474-3.402,0.273     c-1.113-0.273-2.031-0.952-2.586-1.91c-1.376-2.384-0.937-4.9,1.904-8.157l-4.288,2.48c-1.692,0.977-3.854,0.4-4.824-1.291     c-0.33-0.57-0.655-1.426-0.606-2.518c-1.667,0.315-2.486,0.134-3.123-0.006c-1.343-0.31-2.435-1.085-3.081-2.207     c-0.967-1.668-1.113-3.293,0.964-5.895c-0.719,0.072-1.368,0.042-1.953-0.079c-1.416-0.31-2.574-1.134-3.266-2.335     c-0.961-1.668-0.418-3.79,1.222-4.778c23.017-14.009,47.217-29.995,60.231-40.171c-16.167,8.976-44.042,26.277-64.573,39.516     c-0.815,0.521-1.81,0.691-2.747,0.461c-0.937-0.225-1.747-0.824-2.231-1.662c-0.164-0.291-0.325-0.648-0.446-1.061     c-4.997,2.832-7.753,3.626-9.803,3.178c-1.249-0.279-2.277-1.02-2.896-2.086c-0.467-0.813-0.576-1.729-0.379-2.578     c-1.125,0.425-1.607,0.31-2.305,0.14c-0.934-0.23-1.786-0.861-2.271-1.698c-0.922-1.595-0.461-3.632,1.058-4.676l16.38-11.261     c-0.076-0.098-0.146-0.206-0.206-0.315c-0.977-1.692-0.397-3.845,1.294-4.821c0.425-0.249,0.876-0.395,1.332-0.442     c1.688-0.886,6.585-4.215,10.946-7.181c19.1-12.978,26.101-17.138,29.943-16.271c1.17,0.267,2.135,0.964,2.726,1.953     c8.83-4.955,12.796-6.302,15.034-5.743c1.125,0.267,2.056,0.952,2.613,1.922c0.203,0.352,0.353,0.691,0.455,1.031     c1.109-0.219,2.062-0.23,2.868-0.055c1.371,0.31,2.493,1.116,3.166,2.274c0.206,0.363,0.352,0.758,0.418,1.152     c10.213-5.373,11.783-4.997,13.069-4.688c1.085,0.261,1.977,0.922,2.517,1.856c0.516,0.891,0.861,1.825,0.679,3.014     c6.302-3.572,10.516-4.985,13.366-4.36c1.534,0.321,2.789,1.213,3.529,2.505c2.008,3.475-1.055,5.506-9.248,10.946     c-5.27,3.486-12.741,8.223-20.655,13.25c-1.776,1.122-3.663,2.323-5.634,3.566c17.332-10.631,32.979-19.595,33.154-19.697     c1.649-0.935,3.741-0.419,4.748,1.188c1.007,1.595,0.57,3.711-0.982,4.791c-0.066,0.036-1.861,1.273-4.9,3.342l11.989-6.926     c1.681-0.977,3.845-0.395,4.821,1.291c1.413,2.45,0.771,4.773-3.475,8.406c0.267-0.158,0.552-0.31,0.831-0.461     c5.913-3.597,8.951-5.24,10.764-5.932c2.214-1.207,4.494-2.438,6.823-3.693c42.705-22.989,85.04-43.293,85.459-43.506     c1.328-0.63,2.855-0.363,3.887,0.564c3.075-0.897,5.397-1.158,7.022-0.758c1.947,0.461,2.96,1.613,3.469,2.486     c0.965,1.686,0.4,3.832-1.279,4.814c-3.724,2.184-7.556,4.439-11.468,6.738c0.297,0.339,0.527,0.685,0.71,1     c0.479,0.825,0.601,1.819,0.339,2.735c-0.188,0.673-0.309,1.085-1.504,1.965c0.867,0.346,1.564,0.946,2.02,1.734     c1.893,3.281-0.994,6.216-5.755,9.751c0.042,0.055,0.079,0.115,0.109,0.17c1.661,2.869-0.94,4.621-2.493,5.671     c-0.928,0.63-2.292,1.54-4.026,2.698c-2.39,1.589-5.488,3.645-9.12,6.059c1.467-0.261,2.188-0.091,2.795,0.055     c1.226,0.291,2.232,1.019,2.826,2.056c2.238,3.875-1.655,6.828-11.771,13.136c-5.907,3.681-13.87,8.32-22.499,13.311     c0.097,0.013,0.193,0.037,0.272,0.061c1.286,0.285,2.341,1.037,2.966,2.117c0.964,1.691,0.388,3.851-1.304,4.827     c-1.104,0.637-2.426,0.618-3.481,0.024c-6.871,1.121-39.897,21.752-68.824,41.704     C294.594,414.693,293.89,414.911,293.174,414.911z M252.725,379.325c-4.73,2.899-9.297,5.786-13.187,8.424     c2.887-1.668,6.073-3.56,9.43-5.592C250.126,381.26,251.373,380.32,252.725,379.325z M227.4,375.941     c-1.413,0.994-2.753,1.947-3.994,2.851c0.246-0.134,0.494-0.267,0.749-0.395C225.132,377.634,226.211,376.82,227.4,375.941z" style="fill:#871518;"/></g><g><path d="M335.128,304.946c-0.267,0-0.54-0.03-0.801-0.098c-0.952-0.218-1.765-0.824-2.262-1.674     c-1.893-3.28,1.559-6.052,4.329-8.271c1.231-0.988,2.766-2.146,4.615-3.493c-4.36,2.438-7.04,3.899-7.113,3.936     c-1.698,0.928-3.82,0.315-4.767-1.364c-0.946-1.686-0.37-3.826,1.31-4.791c0,0,2.899-1.686,7.642-4.433     c-0.54,0-1.031-0.055-1.468-0.151c-1.534-0.34-2.783-1.226-3.518-2.493c-0.922-1.601-0.461-3.632,1.056-4.676     c0.892-0.618,1.813-1.255,2.771-1.91c-0.995-0.352-1.802-1.019-2.316-1.904c-1.553-2.698-1.086-5.324,8.714-12.662     c-0.849-1.652-0.272-3.699,1.353-4.654c1.158-0.688,2.329-1.38,3.505-2.08c-0.715-0.394-1.291-0.967-1.703-1.671     c-0.474-0.825-0.595-1.804-0.34-2.717c0.254-0.913,0.867-1.692,1.697-2.144c1.753-0.967,3.518-1.95,5.295-2.947     c-0.57-0.382-1.05-0.892-1.401-1.498c-1.686-2.935,0.085-4.157,5.337-7.774c0.036-0.03,0.085-0.063,0.127-0.088     c-0.437-0.324-0.8-0.731-1.073-1.21c-0.934-1.604-0.454-3.657,1.086-4.691c1.789-1.207,3.603-2.438,5.421-3.672     c-0.055-0.07-0.103-0.146-0.146-0.218c-0.97-1.692-0.394-3.854,1.292-4.827c0.661-0.379,1.395-0.524,2.099-0.461     c3.456-1.307,17.034-9.654,28.314-17.086c0.807-0.54,1.807-0.715,2.753-0.488c0.946,0.221,1.759,0.825,2.244,1.668     c0.188,0.318,0.327,0.622,0.424,0.916c1.068-0.719,2.142-1.44,3.19-2.153c0.813-0.555,1.825-0.743,2.777-0.524     s1.776,0.828,2.269,1.677c0.43,0.746,0.588,1.431,0.533,2.077c0.667-0.152,1.183-0.109,1.729,0.015     c0.964,0.218,1.898,0.9,2.401,1.752c0.618,1.088,0.771,2.408,0.406,3.708c-0.291,1.061-0.752,2.711-5.222,6.556     c0.322,1.049,0.194,2.11-0.363,3.229c0.746,0.291,1.376,0.828,1.789,1.525c1.697,2.959-0.4,4.481-4.385,6.989     c-0.049,0.031-0.098,0.061-0.134,0.091c0.946,0.23,1.753,0.843,2.238,1.692c1.098,1.953,0.552,3.168-1.116,4.585l0.049,0.063     c-0.024,0.015-0.395,0.27-1.056,0.719c-0.539,0.4-1.152,0.828-1.837,1.298c-1.844,1.282-4.482,3.104-7.653,5.297     c-5.203,3.599-11.851,8.175-18.739,12.929c10.255-6.765,20.243-13.729,27.453-18.766c10.559-7.362,10.559-7.365,12.299-6.977     c0.971,0.209,1.808,0.825,2.299,1.683c0.527,0.916,1.037,2.429,0.467,4.469c-0.128,0.452-0.315,0.943-0.582,1.492     c0.643-0.185,0.958-0.1,1.425,0.021c0.903,0.239,1.674,0.834,2.141,1.646c1.632,2.817,0.134,4.794-6.307,9.433     c1.188-0.185,1.825-0.04,2.365,0.088c1.2,0.279,2.183,0.995,2.765,2.01c0.977,1.689,0.4,3.851-1.291,4.827     c-1.02,0.591-2.22,0.609-3.221,0.158c-7.277,1.44-45.434,24.882-79.207,47.417C336.504,304.74,335.819,304.946,335.128,304.946z" style="fill:#871518;"/></g><g><path d="M325.546,339.986c-0.728,0-1.225-0.109-1.655-0.213c-1.395-0.315-2.541-1.128-3.221-2.292     c-0.479-0.831-0.6-1.819-0.327-2.735c0.261-0.922,0.892-1.698,1.734-2.146c27.247-14.494,55.459-30.783,74.537-43.251     l-73.937,42.681c-1.692,0.977-3.852,0.4-4.827-1.292c-0.455-0.782-0.892-2.05-0.51-3.729c-0.655,0.419-1.298,0.825-1.94,1.231     c-1.559,0.982-3.621,0.606-4.719-0.867c-1.109-1.485-0.885-3.572,0.504-4.778c1.407-1.231,2.868-2.541,4.3-3.857     c-0.321-0.176-0.619-0.412-0.886-0.691c-0.582-0.631-0.903-1.432-0.939-2.25c-3.166,1.692-3.724,1.547-4.682,1.316     c-0.929-0.236-1.734-0.855-2.214-1.674c-0.618-1.08-0.667-2.02-0.327-2.911c-1.207,0.049-2.499-0.601-3.178-1.759     c-0.867-1.51-0.965-2.668,0.836-5.094c-5.245,2.766-6.197,2.535-7.083,2.316c-0.934-0.225-1.843-0.892-2.322-1.729     c-1.062-1.831-1.098-3.232,2.322-6.731c-0.782-0.31-1.516-0.897-1.928-1.613c-0.534-0.922-0.601-2.001-0.268-2.947     c-0.157-0.024-0.309-0.042-0.467-0.085c-1.007-0.23-1.874-0.873-2.383-1.758c-0.746-1.286-1.462-2.541,1.746-6.684     c-7.956,4.421-9.029,4.16-10.019,3.912c-0.939-0.23-1.825-0.886-2.311-1.723c-1.291-2.25-0.388-3.42,2.305-5.846     c-3.408,1.88-3.856,1.765-4.924,1.485c-0.916-0.236-1.717-0.843-2.184-1.668c-1.595-2.753-0.395-4.651,6.107-9.26     c-0.176-0.437-0.273-0.861-0.273-1.286c-1.935,1.188-3.875,2.371-5.779,3.542c-0.818,0.497-1.795,0.655-2.717,0.425     c-0.928-0.243-1.716-0.844-2.189-1.662c-1.595-2.753,0.637-4.591,2.996-6.537c1.438-1.195,3.487-2.814,5.828-4.67     c0.023-0.018,0.042-0.03,0.055-0.049c-0.377,0-0.649-0.061-0.892-0.115c-1.086-0.242-1.983-0.897-2.529-1.837     c-0.977-1.689-0.394-3.851,1.292-4.827c0.752-0.431,1.601-0.561,2.39-0.416c3.195-1.18,13.96-8.002,22.741-14.082     c0.818-0.561,1.825-0.758,2.795-0.543c0.959,0.215,1.783,0.828,2.281,1.68c1.03,1.795,0.903,3.554-1.565,6.541     c3.111-1.486,3.742-1.325,4.464-1.141c0.928,0.234,1.765,0.861,2.237,1.686c1.541,2.663-0.661,4.43-2.177,5.613     c0.418,0.291,0.77,0.676,1.031,1.125c1.534,2.653-0.346,4.739-3.002,6.789c1.019,1.813,0.582,3.45-1.559,6.01     c3.22-1.989,6.501-4.033,9.685-6.059c1.559-0.982,3.62-0.601,4.724,0.886c1.104,1.485,0.874,3.565-0.527,4.772     c-1.729,1.492-3.499,3.051-5.252,4.608c3.839-2.243,5.44-2.613,6.962-2.268c1.067,0.249,1.953,0.897,2.493,1.831     c0.539,0.929,0.77,1.759,0.484,2.741c0.17,0.024,0.34,0.055,0.504,0.098c1.031,0.242,1.892,0.885,2.42,1.789     c0.879,1.534,0.497,3.486-0.91,4.56c-0.637,0.491-1.279,0.989-1.916,1.486c1.152-0.104,2.328,0.37,3.093,1.347     c1.122,1.437,0.958,3.499-0.37,4.742c-1.255,1.176-2.522,2.383-3.784,3.59l4.7-2.711c0.813-0.467,1.776-0.601,2.687-0.352     c0.897,0.236,1.674,0.824,2.141,1.644c1.722,2.983-0.837,5.185-4.706,8.502c-0.818,0.703-1.723,1.462-2.675,2.256     c0.461,0.716,0.649,1.577,0.528,2.407c0.394-0.03,0.685,0.055,1.055,0.14c0.922,0.237,1.74,0.843,2.214,1.674     c0.34,0.576,0.679,1.171,0.661,2.008c9.175-5.713,20.449-12.675,31.808-19.563c54.543-33.069,57.774-32.293,60.128-31.705     c1.073,0.267,1.965,0.925,2.505,1.855c0.479,0.825,0.601,1.813,0.339,2.724c-0.261,0.915-0.885,1.691-1.722,2.146     c-1.207,0.655-2.414,1.31-3.62,1.971c1.606-0.661,3.499-0.048,4.391,1.498c0.521,0.897,1.012,2.384,0.442,4.366     c-0.206,0.74-0.491,1.717-1.613,3.257c0.242,0.206,0.467,0.442,0.661,0.716c1.109,1.606,0.709,3.802-0.897,4.912     c-0.219,0.151-22.11,15.264-45.059,29.885C339.682,336.832,329.391,339.986,325.546,339.986z M420.617,267.335     c-21.28,11.601-42.839,24.021-60.158,34.725L420.617,267.335z" style="fill:#871518;"/></g><g><path d="M277.723,202.006c-0.601,0-1.02-0.097-1.396-0.185c-1.237-0.285-2.237-1.013-2.844-2.05     c-0.146-0.261-0.261-0.53-0.34-0.807c-2.189,0.47-3.25,0.237-4.009,0.076c-1.552-0.331-2.808-1.216-3.541-2.486     c-0.595-1.019-0.734-2.235-0.395-3.42c0.419-1.461,1.632-3.005,4.19-5.021c-0.042-0.063-0.091-0.133-0.127-0.206     c-1.243-2.135-0.886-4.285,1.753-7.165c-0.644,0.197-0.995,0.103-1.62-0.058c-0.915-0.24-1.697-0.834-2.165-1.653     c-0.709-1.231-0.836-2.438-0.199-3.857l-1.887,1.089c-1.649,0.958-3.766,0.421-4.77-1.204c-1.004-1.628-0.53-3.754,1.064-4.806     l4.84-3.184c-0.57-0.315-1.056-0.785-1.389-1.346c-0.485-0.843-0.601-1.85-0.322-2.784c0.2-0.67,0.601-1.258,1.122-1.695     c-0.34-0.294-0.624-0.643-0.854-1.04c-0.449-0.785-0.892-2.068-0.413-3.772c0.013-0.073,0.036-0.155,0.061-0.233     c-0.952-0.282-1.746-0.901-2.243-1.756c-1.855-3.205,0.448-4.809,8.071-10.112c4.506-3.129,10.874-7.408,17.623-11.94     c8.672-5.831,20.431-13.742,29.958-20.455c-13.396,7.868-31.904,19.982-48.896,31.874c-1.596,1.116-3.791,0.734-4.912-0.855     c-1.122-1.592-0.746-3.787,0.836-4.918c10.553-7.52,23.342-16.665,35.004-25.052c-7.459,4.982-15.288,10.452-22.632,15.81     c-0.813,0.592-1.832,0.807-2.82,0.604c-0.977-0.209-1.819-0.821-2.322-1.692c-0.589-1.022-0.734-2.253-0.4-3.469     c0.327-1.173,0.813-2.954,7.113-7.859c-0.278-1.992,2.001-5.119,15.471-15.273c-0.085-0.112-0.158-0.228-0.23-0.346     c-0.977-1.689-0.4-3.851,1.279-4.831c0,0,8.108-4.706,16.234-9.409c4.063-2.35,8.132-4.703,11.194-6.465     c2.311-1.334,3.778-2.18,4.791-2.698c0.03-0.024,0.061-0.043,0.091-0.067l0.007,0.012c1.667-0.849,2.007-0.761,2.916-0.519     c1.328,0.357,2.329,1.449,2.565,2.808c0.243,1.353-0.339,2.723-1.468,3.505c-1.552,1.083-3.116,2.171-4.682,3.266     c1.335-0.54,2.856-0.2,3.846,0.813c2.904-0.91,4.123-0.655,4.973-0.47c1.437,0.303,2.607,1.125,3.293,2.323     c1.631,2.808-0.413,4.351-3.791,6.91c-0.091,0.066-0.176,0.136-0.278,0.206c1.17-0.146,1.837,0,2.396,0.125     c1.328,0.294,2.413,1.07,3.05,2.183c1.432,2.465,0.928,4.418-5.712,9.776c10.061-6.11,10.533-5.989,12.056-5.607     c0.922,0.23,1.753,0.853,2.231,1.68c0.425,0.722,0.57,1.564,0.425,2.38c0.788-0.131,1.443-0.112,2.02,0.021     c1.134,0.27,2.062,0.955,2.626,1.928c0.539,0.931,1.043,2.465,0.437,4.503c-0.491,1.619-1.947,3.551-4.148,5.722l2.462-1.425     c1.68-0.967,3.833-0.397,4.815,1.279c0.982,1.68,0.425,3.833-1.255,4.824c-2.99,1.774-6.01,3.569-9.018,5.376     c0.69-0.161,1.043-0.069,1.455,0.034c0.903,0.243,1.71,0.855,2.183,1.67c1.298,2.247,0.892,4.391-2.396,7.529     c2.693-1.616,5.301-3.181,7.775-4.67c0.813-0.485,1.789-0.627,2.704-0.391c0.922,0.237,1.704,0.834,2.171,1.653     c0.697,1.191,0.85,2.62,0.449,4.026c-0.649,2.287-3.068,4.921-7.411,8.166c0.134,1.225-0.382,2.477-1.443,3.25     c-0.018,0.018-0.437,0.318-1.188,0.858c1.898-1.268,3.784-2.532,5.658-3.793c1.613-1.089,3.814-0.661,4.906,0.958     s0.661,3.814-0.958,4.903c-0.188,0.127-18.86,12.684-38.261,24.852C289.111,199.277,280.888,202.006,277.723,202.006z" style="fill:#871518;"/></g><g><path d="M199.734,299.81c-1.219,0-2.407-0.631-3.06-1.765c-0.588-1.02-1.155-2.717-0.485-5.033     c0.125-0.425,0.273-0.94,0.564-1.596c-9.594,5.592-9.839,5.525-11.337,5.137c-0.913-0.242-1.701-0.843-2.171-1.655     c-0.303-0.528-0.452-1.086-0.473-1.649l-5.524,3.189c-1.665,0.965-3.793,0.412-4.791-1.237c-0.995-1.644-0.485-3.79,1.143-4.814     l112.697-70.914c-40.34,23.812-90.571,54.88-127.906,78.524c-0.81,0.516-1.801,0.673-2.732,0.442     c-0.934-0.23-1.734-0.83-2.216-1.661c-0.585-1.019-1.149-2.705-0.503-4.973c0.209-0.734,0.561-1.51,1.058-2.335     c-0.218-0.219-0.412-0.467-0.57-0.74c-0.336-0.588-0.519-1.146-0.561-1.698c-4.045,1.802-4.803,1.613-5.552,1.42     c-0.916-0.236-1.795-0.904-2.268-1.717c-0.33-0.576-0.494-1.23-0.47-1.886c-3.366,1.765-4.521,1.868-5.591,1.619     c-0.931-0.225-1.841-0.879-2.335-1.71c-5.946,3.263-9.621,4.481-11.847,3.984c-1.283-0.285-2.338-1.043-2.965-2.135     c-1.171-2.031-0.255-3.523,1.061-4.664c-0.215-0.212-0.397-0.461-0.555-0.721c-1.046-1.813-0.464-3.421,0.855-4.967     c-4.179,1.818-6.889,2.438-8.551,2.019c-1.21-0.291-2.205-1.013-2.796-2.043c-0.494-0.861-0.979-2.293-0.452-4.203     c0.097-0.357,0.212-0.776,0.44-1.292c-4.767,2.596-6.189,2.796-7.472,2.48c-1.003-0.248-1.834-0.873-2.341-1.746     c-0.069-0.115-0.13-0.23-0.188-0.346c-1.91,0.418-2.795,0.212-3.511,0.055c-1.292-0.304-2.35-1.062-2.972-2.141     c-1.559-2.699-0.403-4.409,6.528-9.497c-0.097-0.019-0.194-0.042-0.3-0.069c-0.937-0.228-1.753-0.834-2.235-1.668     c-0.03-0.055-0.058-0.106-0.088-0.158c-1.334,0.358-2.311,0.395-3.087,0.203c-1.104-0.27-2.016-0.942-2.565-1.895     c-1.941-3.366,0.667-6.413,9.105-12.432c-1.01-1.659-0.497-3.824,1.158-4.845c46.711-28.854,48.518-28.394,50.265-27.951     c0.925,0.23,1.783,0.874,2.259,1.701c0.606,1.049,0.722,1.971,0.421,2.856c11.428-7.18,11.893-7.068,13.56-6.656     c0.582,0.143,1.128,0.437,1.574,0.84c5.606-2.705,8.293-3.248,9.97-2.841c1.155,0.276,2.102,0.973,2.668,1.961     c0.943,1.625,0.443,3.703-1.134,4.725c-15.191,9.867-35.243,23.06-51.753,34.182c5.849-3.536,12.123-7.274,18.284-10.952     c2.659-1.586,5.407-3.229,8.175-4.882c12.365-7.856,25.477-16.438,38.1-24.949c0.813-0.546,1.816-0.731,2.769-0.516     c0.955,0.224,1.776,0.831,2.265,1.677c0.061,0.109,0.118,0.212,0.17,0.315c3.654-1.61,5.758-2.013,7.144-1.674     c1.119,0.273,2.038,0.955,2.595,1.919c0.473,0.815,0.598,1.792,0.346,2.705c-0.249,0.91-0.858,1.683-1.68,2.144     c-36.586,20.461-75.08,44.467-87.563,55.726c13.818-6.762,44.567-26.486,64.364-39.185c36.65-23.512,39.767-25.122,42.532-24.446     c1.004,0.243,1.835,0.861,2.347,1.747c0.94,1.628,0.437,3.714-1.149,4.736c-2.562,1.649-5.233,3.372-7.996,5.158     c5.379-2.884,8.951-4.6,11.389-5.601c18.882-11.862,31.986-18.341,38.348-17.201c42.039-26.25,73.058-43.109,82.767-40.801     c2.311,0.546,3.506,1.883,4.1,2.911c0.776,1.34,1.498,3.587,0.546,6.656c-0.546,1.753-1.51,4.839-7.841,10.883     c0.066,0.094,0.127,0.188,0.182,0.279c0.431,0.755,0.582,1.619,0.449,2.478c1.74-0.37,2.486-0.185,3.099-0.037     c1.183,0.288,2.146,0.998,2.723,1.998c0.946,1.641,0.425,3.745-1.183,4.751l-22.547,14.194l9.757-5.64     c0.819-0.464,1.777-0.591,2.688-0.349c0.903,0.243,1.674,0.834,2.146,1.646c1.691,2.938-1.146,4.939-2.668,6.016     c-1.146,0.813-2.809,1.919-5.07,3.39c-1.692,1.098-3.724,2.395-6.07,3.881c0.127,0.155,0.242,0.315,0.34,0.485     c0.479,0.831,0.6,1.822,0.333,2.747c-0.272,0.922-0.903,1.698-1.746,2.144c-0.194,0.106-11.735,6.192-27.878,15.101     c-19.788,11.456-46.632,27.347-67.318,39.598c-0.837,0.49-1.667,0.988-2.496,1.479c-11.177,7.229-18.633,12.607-23.603,16.604     l93.258-53.851c1.662-0.955,3.784-0.418,4.785,1.216c1,1.634,0.516,3.769-1.092,4.809c-10.164,6.583-22.717,14.794-34.651,22.729     c0.346,0.297,0.637,0.654,0.867,1.058c0.976,1.687,0.399,3.852-1.292,4.827c-0.971,0.553-2.092,0.606-3.057,0.225     c-5.288,1.413-25.807,15.295-32.72,19.97c-6.919,4.683-6.919,4.683-8.544,4.306c-0.955-0.224-1.78-0.83-2.274-1.674     c-0.931-1.625-0.873-2.898,0.719-4.699l-27.351,15.798C200.941,299.664,200.335,299.81,199.734,299.81z M195.429,252.277     c-0.115,0.073-0.228,0.152-0.339,0.224c-15.464,10.2-26.453,17.405-34.349,22.481c1.155-0.559,2.307-1.122,3.469-1.681     c11.498-6.318,28.111-15.818,47.417-27.038c5.33-3.669,10.604-7.287,15.81-10.834c-7.832,4.193-16.492,8.739-25.913,13.66     C199.522,250.136,197.484,251.2,195.429,252.277z M195.39,266.492c-1.713,1.055-3.345,2.067-4.903,3.05     C192.084,268.548,193.725,267.535,195.39,266.492z M277.304,199.308c0.079,0.688,0.036,1.479-0.225,2.365     c-0.115,0.403-0.284,0.813-0.503,1.243c27.453-17.356,49.85-29.6,62.82-32.205c4.015-2.407,7.957-4.775,11.796-7.08     c0.108-0.061,0.218-0.118,0.333-0.173c0.606-0.928,1.037-1.783,1.286-2.577c0.072-0.261,0.121-0.494,0.127-0.679     c-2.559-0.397-13.626,1.519-60.024,29.527C287.85,192.792,282.616,196,277.304,199.308z" style="fill:#871518;"/></g><g><path d="M237.876,216.73c-0.313,0.003-0.594-0.066-0.946-0.154c-0.934-0.23-1.747-0.84-2.226-1.668     c-0.882-1.525-0.509-3.463,0.871-4.545c2.911-2.292,5.928-4.73,8.842-7.147c-1.28,0.761-2.52,1.51-3.688,2.213     c-0.813,0.488-1.789,0.631-2.705,0.391c-0.918-0.233-1.704-0.831-2.177-1.653c-0.979-1.698-0.609-2.941,0.922-4.973     c-1.01-0.309-1.858-0.973-2.38-1.874c-1.113-1.925-0.658-3.76,2.419-9.121c-1.416,0.916-2.787,1.813-3.948,2.574     c-9.434,6.167-10.358,6.726-12.335,6.255c-0.946-0.224-1.808-0.861-2.292-1.704c-0.115-0.203-0.215-0.394-0.291-0.588     c-0.561,0.058-1.062,0.018-1.538-0.088c-1.137-0.255-2.074-0.937-2.644-1.923c-1.176-2.031-1.619-2.805,7.214-12.847     c-0.237-0.249-0.449-0.531-0.625-0.837c-0.24-0.409-0.385-0.852-0.443-1.304c-3.793,2.125-4.254,2.007-5.336,1.725     c-0.919-0.236-1.713-0.843-2.187-1.665c-0.697-1.219-0.604-2.708,0.185-3.814c-0.876,0.276-1.513,0.261-2.202,0.103     c-0.955-0.221-1.874-0.895-2.362-1.74c-1-1.737-0.707-3.378,0.764-5.294c-0.352-0.282-0.652-0.627-0.879-1.025     c-0.561-0.97-0.746-1.822-0.488-2.747c-0.143-0.024-0.276-0.058-0.416-0.094c-0.943-0.228-1.807-0.867-2.292-1.707     c-0.761-1.322-1.007-1.747,0.585-4.418c-0.797,0.506-1.537,0.985-2.189,1.4c-8.539,5.482-9.051,5.81-10.886,5.367     c-0.937-0.23-1.768-0.849-2.25-1.683c-1.64-2.835,0.834-4.685,2.823-6.171c0.324-0.245,0.685-0.509,1.076-0.797     c-0.328-0.47-0.524-0.998-0.6-1.541c-1.734,0.601-3.19,0.846-4.264,0.64c-1.343-0.267-2.438-1.034-3.096-2.168     c-0.467-0.816-0.649-1.507-0.579-2.135c-1.713,1.049-3.372,2.077-4.958,3.06c-0.813,0.503-1.795,0.658-2.723,0.427     c-0.925-0.233-1.722-0.833-2.198-1.662c-0.746-1.294-0.855-2.48-0.212-3.748c-0.331-0.243-0.622-0.552-0.861-0.913     c-0.455-0.682-0.634-1.471-0.57-2.238c-2.165,0.9-3.329,0.982-4.351,0.733c-1.046-0.257-1.917-0.897-2.441-1.813     c-0.5-0.864-0.597-1.865-0.33-2.765c-9.673,5.546-11.183,5.715-12.727,5.321c-0.922-0.233-1.816-0.903-2.295-1.729     c-0.17-0.294-0.292-0.6-0.37-0.916c-0.834,0.209-1.225,0.109-1.686-0.009c-0.918-0.233-1.737-0.858-2.21-1.677     c-0.367-0.631-0.558-1.237-0.579-1.853c-1.261,0.255-2.274,0.27-3.087,0.082c-1.292-0.3-2.35-1.067-2.975-2.153     c-0.279-0.485-0.445-1.016-0.5-1.562c-0.94,0.109-1.486-0.015-1.977-0.127c-1.18-0.276-2.15-0.982-2.729-1.986     c-1.07-1.85-1.456-3.954,1.883-7.978c-1.546,0.697-3.402,0.197-4.375-1.249c-1.077-1.602-0.673-3.77,0.906-4.873l0.13-0.088     c-1.088,0.655-2.153,1.295-3.19,1.922c-1.649,0.998-3.796,0.485-4.818-1.149c-0.555-0.889-0.67-1.926-0.4-2.856     c-1.186-0.397-2.144-1.165-2.747-2.205c-1.046-1.813-0.604-3.384,0.913-5.033c-1.013,0.661-2.022,1.328-3.026,1.989     c-1.62,1.067-3.796,0.631-4.876-0.982c-1.08-1.61-0.661-3.79,0.943-4.882l6.301-4.306c-0.676-0.309-1.261-0.828-1.631-1.471     c-1.571-2.726,0.54-4.451,2.99-6.452c0.394-0.328,0.84-0.688,1.334-1.08c-4.864,2.368-5.825,2.135-6.813,1.886     c-1.019-0.249-1.865-0.876-2.38-1.768c-0.264-0.452-0.437-0.949-0.515-1.464c-2.035,1.361-4.057,2.726-6.067,4.084     c-0.813,0.549-1.819,0.737-2.774,0.518c-0.952-0.218-1.777-0.828-2.265-1.677c-1.601-2.771-0.467-5.431,5.815-10.324     c-0.903-0.395-1.646-1.052-2.144-1.914c-1.101-1.916-1.052-3.563,2.147-6.747c-1.332,0.337-1.88,0.206-2.271,0.109     c-1.083-0.255-1.974-0.913-2.517-1.847c-0.437-0.761-0.864-2.01-0.418-3.66c0.206-0.773,0.731-1.673,1.516-2.668     c-0.315-0.261-0.582-0.576-0.788-0.934c-0.974-1.689-0.594-3.223,0.81-4.976c-0.367,0.042-0.734-0.009-1.21-0.125     c-0.943-0.228-1.75-0.831-2.235-1.667c-1.689-2.926-0.033-5.576,4.937-9.375c-0.233-0.228-0.442-0.488-0.604-0.771     c-0.609-1.055-0.634-2.353-0.058-3.432l2.453-4.585c-2.244,1.404-3.536,1.813-4.976,1.498c-1.037-0.224-1.941-0.882-2.468-1.792     c-1.131-1.962-0.428-3.642,1.489-6.104c-0.094-0.112-0.176-0.23-0.255-0.357c-1.034-1.653-0.53-3.833,1.122-4.867     c6.726-4.2,7.183-4.312,8.751-3.924c0.928,0.23,1.737,0.84,2.216,1.671c0.212,0.367,0.358,0.725,0.446,1.083     c1.479-0.789,2.508-0.989,3.626-0.746c1.034,0.225,1.925,0.873,2.453,1.786c0.609,1.052,0.63,2.353,0.055,3.429l-3.308,6.186     c6.146-3.587,14.424-8.593,22.123-13.36c0.813-0.506,1.798-0.658,2.723-0.424s1.719,0.831,2.198,1.662     c1.513,2.623,0.47,4.997-3.59,8.393c0.282,0.261,0.525,0.561,0.722,0.904c0.37,0.64,0.546,1.219,0.561,1.771     c10.549-6.249,14.118-7.295,16.398-6.75c1.14,0.27,2.083,0.961,2.647,1.94c0.473,0.813,0.598,1.783,0.355,2.69     c-0.088,0.321-0.224,0.634-0.397,0.918c0.264,0,0.519,0.034,0.779,0.091c0.943,0.227,1.755,0.831,2.241,1.673     c0.646,1.116,0.722,2.12,0.321,3.124c4.803-2.744,7.954-3.778,10.234-3.284c1.361,0.291,2.483,1.092,3.153,2.256     c0.667,1.158,0.876,2.274,0.418,3.542c4.09-1.583,5.376-1.289,6.374-1.059c1.24,0.285,2.256,1.016,2.859,2.062     c0.516,0.892,0.646,1.941,0.367,2.957c-0.494,1.831-2.168,3.514-9.281,7.887c0.649,1.474,0.218,3.241-1.11,4.242     c-2.98,2.241-6.258,4.706-9.667,7.284c15.452-9.194,15.949-9.072,17.599-8.645c0.919,0.24,1.737,0.858,2.213,1.68     c0.255,0.439,0.4,0.912,0.455,1.389c2.717-0.937,3.654-0.719,4.442-0.531c1.14,0.27,2.08,0.952,2.644,1.931     c1.059,1.832,0.992,3.618-1.294,6.244c0.879,0.249,1.634,0.833,2.095,1.634c0.385,0.664,0.546,1.283,0.537,1.868     c3.781-1.85,4.424-1.683,5.276-1.464c0.919,0.239,1.747,0.861,2.223,1.686c0.916,1.586,0.467,3.615-1.037,4.664l-1.076,0.749     c0.285,0.027,0.521,0.085,0.752,0.143c1.085,0.258,1.977,0.916,2.52,1.853c0.961,1.671,0.413,3.802-1.243,4.797     c-22.177,13.302-46.313,29.3-57.693,38.724c12.375-6.652,34.534-20.622,54.592-34.133c0.81-0.545,1.816-0.737,2.768-0.512     c0.952,0.224,1.777,0.828,2.265,1.677c0.421,0.73,0.634,1.559,0.634,2.414c5.609-3.687,5.934-3.608,7.283-3.299     c0.949,0.225,1.78,0.84,2.268,1.686c0.715,1.24,0.591,2.744-0.203,3.842c0.67-0.4,1.331-0.8,1.977-1.188     c0.81-0.488,1.786-0.631,2.702-0.394c0.918,0.239,1.704,0.837,2.177,1.655c0.821,1.425,0.794,2.723-0.127,4.172     c0.197,0.203,0.367,0.431,0.509,0.673c0.897,1.564,0.479,3.551-0.979,4.618l-8.284,6.058c0.797,0.285,1.5,0.858,1.925,1.592     c0.555,0.958,0.679,1.825,0.434,2.696c4.618-2.398,5.23-2.241,6.043-2.035c0.913,0.239,1.716,0.846,2.195,1.67     c0.622,1.08,0.804,2.138,0.51,3.242c0.509,0.318,0.946,0.755,1.24,1.261c1.585,2.753,0.394,5.179-6.407,10.546     c0.57,1.347,0.258,2.957-0.876,3.987l-3.429,3.123c0.534,0.373,0.979,0.853,1.313,1.435c0.858,1.482,0.967,2.695-0.403,4.473     c0.167,0.179,0.309,0.373,0.424,0.576c0.673,1.162,0.625,2.599-0.112,3.714c-0.143,0.215-0.282,0.428-0.424,0.637     c1.616-1.006,3.25-2.041,4.803-3.041c0.813-0.524,1.804-0.691,2.741-0.464c0.943,0.228,1.747,0.831,2.232,1.667     c0.406,0.709,0.615,1.35,0.591,2.001c0.094-0.058,0.182-0.121,0.273-0.182c0.813-0.54,1.813-0.722,2.762-0.5     c0.949,0.225,1.768,0.831,2.253,1.677c0.227,0.385,0.388,0.755,0.488,1.116c2.599-1.346,3.915-1.549,5.173-1.258     c1.064,0.246,1.943,0.897,2.48,1.829c0.828,1.434,0.549,3.25-0.679,4.369l-8.906,8.138c0.206,0.207,0.382,0.443,0.531,0.704     c0.494,0.846,0.794,1.364,0.488,2.353c1.027,0.179,1.986,0.849,2.507,1.752c0.77,1.334,0.585,3.014-0.452,4.151     c-1.534,1.674-3.108,3.414-4.633,5.121c0.413-0.288,0.807-0.558,1.165-0.81c6.743-4.66,7.292-5.04,9.136-4.627     c0.964,0.218,1.822,0.843,2.313,1.698c0.1,0.173,0.194,0.349,0.27,0.522c1.116-0.367,1.877-0.367,2.647-0.182     c1.025,0.246,1.874,0.876,2.398,1.777c1.183,2.053,0.619,2.986-3.078,9.06c-0.206,0.343-0.437,0.725-0.682,1.131     c1.279-0.934,2.602-1.943,3.875-2.968c0.804-0.646,1.85-0.907,2.865-0.719c1.01,0.188,1.893,0.813,2.405,1.707     c0.707,1.216,0.6,2.25,0.14,3.196c10.13-5.913,10.688-5.768,11.98-5.434c0.916,0.24,1.716,0.843,2.195,1.665     c0.716,1.244,1.474,2.563-1.4,6.341c1.419-0.507,2.146-0.44,2.898-0.252c1.013,0.246,1.844,0.867,2.359,1.756     c0.976,1.688,0.394,3.851-1.298,4.827c-0.625,0.361-1.316,0.506-1.989,0.464c-3.257,1.289-15.146,8.833-21.01,12.55     C240.651,215.721,239.059,216.73,237.876,216.73z" style="fill:#871518;"/></g></g></g><g id="Layer_1"/></svg>