<?xml version="1.0" ?><!DOCTYPE svg  PUBLIC '-//W3C//DTD SVG 1.1//EN'  'http://www.w3.org/Graphics/SVG/1.1/DTD/svg11.dtd'><svg enable-background="new 0 0 128 128" id="Слой_1" version="1.1" viewBox="0 0 128 128" xml:space="preserve" xmlns="http://www.w3.org/2000/svg" xmlns:xlink="http://www.w3.org/1999/xlink"><circle cx="64" cy="64" fill="#D9B587" r="62"/><g><path d="M72.9,66.8V26.3H55.1v40.5c0,1.8-1.1,3.5-2.8,4.1c-11.5,4.6-19.6,15.9-19.6,29c0,8.7,3.5,16.5,9.2,22.2   c1.7,1.6,3.9,2.5,6.2,2.5h31.6c2.3,0,4.6-0.9,6.2-2.5c5.8-5.7,9.3-13.5,9.3-22.2c0-13.1-8.1-24.4-19.6-29   C74,70.2,72.9,68.6,72.9,66.8z" fill="#CEEAE8"/><path d="M32.7,98.1c0,8.6,3.4,17.6,9,23.7c1.7,1.8,4.1,2.9,6.6,2.9l31.4,0c2.5,0,4.8-1,6.5-2.8   c5.6-6,9.1-15.1,9.1-23.7H32.7z" fill="#FDE474"/><path d="M41.6,99.9c0-13.1,4.2-22.8,15.1-27.2c1.7-0.7,2.8-2.3,2.8-4.1l0-42.3h-4.5v40.5c0,1.8-1.1,3.5-2.8,4.1   c-11.5,4.6-19.6,15.9-19.6,29c0,8.7,3.5,16.5,9.2,22.2c1.7,1.6,3.9,2.5,6.2,2.5h5.6C46.4,118.9,41.6,110,41.6,99.9z" fill="#FFFFFF"/><polyline fill="#EDB77F" points="57.7,26.3 55.1,17.3 72.9,17.3 70.3,26.3  "/><polygon fill="#FFFFFF" points="55.1,17.3 57.7,26.3 62.2,26.3 62.2,17.3  "/><path d="M75.2,26.3H52.8c-1.2,0-2.2,1-2.2,2.2v0c0,1.2,1,2.2,2.2,2.2h22.4c1.2,0,2.2-1,2.2-2.2v0   C77.4,27.3,76.4,26.3,75.2,26.3z" fill="#E6E6E5"/><path d="M55.1,28.5c0-1.2,1-2.2,2.2-2.2h-4.5c-1.2,0-2.2,1-2.2,2.2c0,1.2,1,2.2,2.2,2.2h4.5   C56.1,30.8,55.1,29.8,55.1,28.5z" fill="#FFFFFF"/><path d="M31.4,99.9c0,8.8,3.5,17,9.7,23.2c1.9,1.9,4.4,2.9,7.2,2.9h31.6c2.7,0,5.3-1.1,7.2-2.9   c6.2-6.2,9.6-14.4,9.6-23.2c0-13.4-8-25.3-20.4-30.3c-1.2-0.5-1.9-1.6-1.9-2.9V32.1h0.9c2,0,3.6-1.6,3.6-3.6s-1.6-3.6-3.6-3.6h-3.1   l2.2-7.2c0.1-0.4,0-0.8-0.2-1.2c-0.3-0.3-0.7-0.5-1.1-0.5H55.1c-0.4,0-0.8,0.2-1.1,0.5c-0.3,0.3-0.3,0.8-0.2,1.2l2.2,7.2h-3.1   c-2,0-3.6,1.6-3.6,3.6s1.6,3.6,3.6,3.6h0.9v34.7c0,1.3-0.8,2.4-1.9,2.9C39.4,74.7,31.4,86.5,31.4,99.9z M69.3,24.9H58.7l-1.9-6.3   h14.3L69.3,24.9z M52.8,29.4c-0.5,0-0.9-0.4-0.9-0.9s0.4-0.9,0.9-0.9h22.4c0.5,0,0.9,0.4,0.9,0.9s-0.4,0.9-0.9,0.9H52.8z M34,99.9   c0-12.3,7.4-23.2,18.7-27.8c2.2-0.9,3.6-3,3.6-5.4V32.1h15.2v34.7c0,2.4,1.4,4.5,3.6,5.4c10.3,4.2,17.3,13.5,18.5,24.3H50.7   c-0.7,0-1.3,0.6-1.3,1.3s0.6,1.3,1.3,1.3h43.3c0,0.3,0,0.5,0,0.8c0,8-3.1,15.6-8.8,21.3c-1.4,1.4-3.3,2.1-5.3,2.1H48.2   c-2,0-3.9-0.8-5.3-2.1C37.2,115.5,34,108,34,99.9z" fill="#62345B"/></g></svg>